<?xml version="1.0" encoding="UTF-8" ?>
<!DOCTYPE svg PUBLIC "-//W3C//DTD SVG 1.1//EN" "http://www.w3.org/Graphics/SVG/1.1/DTD/svg11.dtd">
<svg width="237pt" height="236pt" viewBox="0 0 2405 2400" version="1.1" xmlns="http://www.w3.org/2000/svg">
<g id="#ffffffff">
</g>
<g id="#2d3180ff">
<path fill="#2d3180" opacity="1.00" d=" M 1155.74 0.00 L 1262.04 0.00 C 1268.65 3.17 1276.06 1.50 1283.09 2.21 C 1287.41 2.49 1291.59 3.91 1295.94 3.98 C 1302.69 4.19 1309.46 4.44 1316.12 5.67 C 1321.89 6.20 1327.78 5.67 1333.42 7.40 C 1344.04 8.41 1354.62 10.08 1365.32 10.36 C 1371.59 10.53 1377.46 13.10 1383.69 13.65 C 1394.01 15.23 1404.20 17.53 1414.58 18.81 C 1421.69 20.59 1429.06 20.83 1436.16 22.71 C 1442.65 24.55 1449.81 22.77 1455.95 26.11 C 1460.87 28.96 1466.61 29.52 1472.01 30.98 C 1477.51 32.29 1482.91 34.12 1488.56 34.72 C 1493.98 35.29 1498.86 37.90 1504.15 39.06 C 1510.77 40.53 1517.19 42.75 1523.77 44.40 C 1528.48 46.06 1533.56 46.20 1538.30 47.78 C 1546.92 51.29 1556.41 52.18 1564.91 56.10 C 1569.12 58.23 1573.71 59.48 1578.18 60.99 C 1591.98 64.99 1605.28 70.48 1618.88 75.11 C 1628.21 78.68 1637.59 82.14 1646.82 85.98 C 1659.69 89.40 1671.26 96.23 1683.28 101.75 C 1686.83 103.15 1690.57 104.15 1693.88 106.14 C 1699.10 109.13 1705.01 110.60 1710.21 113.65 C 1718.36 116.82 1726.12 120.91 1733.63 125.39 C 1738.94 127.81 1744.20 130.36 1749.64 132.49 C 1752.84 134.09 1755.49 136.62 1758.72 138.22 C 1769.63 143.47 1779.86 150.44 1791.70 153.50 C 1795.14 154.62 1797.62 157.43 1799.91 160.09 C 1802.11 162.75 1805.50 163.84 1808.30 165.72 C 1813.62 169.11 1819.28 171.96 1824.51 175.50 C 1832.29 180.81 1840.61 185.28 1848.37 190.63 C 1852.12 193.27 1856.44 195.05 1859.91 198.10 C 1863.58 201.25 1868.12 203.10 1871.88 206.13 C 1875.23 208.86 1878.96 211.04 1882.56 213.42 C 1890.36 219.00 1898.05 224.74 1906.12 229.92 C 1909.34 231.92 1911.82 234.85 1914.87 237.08 C 1927.57 246.32 1939.82 256.14 1952.19 265.80 C 1958.69 270.98 1964.53 277.06 1971.81 281.21 C 1975.58 283.31 1978.03 286.94 1981.08 289.88 C 1992.30 300.38 2004.67 309.59 2015.37 320.65 C 2023.29 327.71 2030.82 335.17 2038.23 342.77 C 2050.08 354.92 2062.56 366.45 2073.92 379.07 C 2085.97 392.06 2097.71 405.31 2109.47 418.53 C 2121.90 432.84 2133.49 447.84 2145.59 462.42 C 2158.55 480.73 2173.27 497.78 2185.22 516.81 C 2193.04 528.62 2201.38 540.07 2208.90 552.08 C 2212.86 558.74 2217.83 564.75 2221.32 571.69 C 2224.72 578.19 2229.22 584.04 2232.50 590.62 C 2234.60 594.09 2237.26 597.22 2239.01 600.92 C 2246.14 614.70 2254.43 627.85 2261.13 641.85 C 2263.77 647.08 2266.82 652.09 2269.83 657.12 C 2273.63 664.69 2276.01 673.02 2281.12 679.90 C 2283.11 682.62 2283.64 686.01 2284.87 689.09 C 2288.77 698.12 2293.46 706.82 2296.93 716.04 C 2299.22 721.68 2302.83 726.75 2304.35 732.70 C 2308.28 743.75 2313.72 754.18 2317.78 765.18 C 2320.22 770.07 2320.64 775.74 2323.58 780.41 C 2325.04 782.86 2327.09 785.05 2327.89 787.87 C 2329.40 793.01 2329.33 798.51 2331.39 803.52 C 2333.11 809.81 2336.74 815.39 2338.03 821.82 C 2339.15 827.03 2342.24 831.56 2343.20 836.81 C 2344.78 845.69 2348.06 854.15 2351.16 862.58 C 2353.17 872.81 2356.79 882.64 2358.93 892.84 C 2362.35 908.71 2366.72 924.36 2370.65 940.11 C 2371.79 946.28 2372.36 952.62 2374.54 958.56 C 2376.68 964.27 2376.93 970.44 2378.70 976.26 C 2380.86 983.22 2379.45 990.82 2382.51 997.57 C 2384.73 1002.72 2382.59 1008.30 2384.11 1013.58 C 2385.07 1021.44 2386.55 1029.22 2388.03 1037.01 C 2389.43 1042.74 2388.36 1048.81 2390.26 1054.48 C 2391.87 1059.28 2390.76 1064.37 2391.74 1069.28 C 2392.91 1075.65 2391.94 1082.22 2393.44 1088.55 C 2394.39 1093.08 2393.61 1097.77 2394.52 1102.32 C 2396.01 1109.45 2396.08 1116.77 2396.00 1124.03 C 2395.87 1130.38 2397.06 1136.66 2397.05 1143.01 C 2397.30 1171.00 2397.34 1199.00 2397.24 1226.99 C 2397.03 1238.67 2397.44 1250.38 2396.68 1262.04 C 2395.42 1270.72 2396.51 1279.50 2395.59 1288.20 C 2395.29 1292.82 2393.84 1297.31 2394.01 1301.98 C 2394.25 1308.04 2392.02 1313.87 2392.49 1319.95 C 2392.84 1325.37 2391.11 1330.62 2391.19 1336.02 C 2391.15 1341.45 2388.58 1346.53 2388.93 1352.02 C 2389.19 1357.44 2387.23 1362.62 2387.21 1368.02 C 2386.68 1374.92 2384.30 1381.52 2383.50 1388.39 C 2383.35 1391.36 2384.20 1394.36 2383.43 1397.31 C 2382.19 1402.86 2379.55 1408.15 2380.00 1414.00 C 2380.48 1421.76 2376.07 1428.52 2374.92 1436.00 C 2373.91 1440.96 2373.08 1445.96 2371.99 1450.91 C 2369.94 1462.64 2366.31 1474.01 2363.71 1485.62 C 2359.37 1500.59 2356.95 1516.09 2351.93 1530.87 C 2350.50 1537.47 2347.76 1543.67 2345.99 1550.19 C 2343.60 1556.16 2343.66 1562.86 2340.65 1568.62 C 2338.38 1572.62 2339.01 1577.37 2337.79 1581.68 C 2336.83 1586.81 2332.13 1590.19 2331.23 1595.35 C 2328.84 1601.85 2329.59 1609.49 2325.20 1615.18 C 2323.11 1618.05 2321.46 1621.25 2320.61 1624.72 C 2317.41 1636.93 2310.89 1647.83 2306.58 1659.63 C 2304.39 1664.00 2303.69 1668.98 2301.15 1673.18 C 2298.61 1677.59 2296.78 1682.35 2294.94 1687.08 C 2290.97 1696.40 2286.02 1705.33 2282.81 1714.97 C 2281.13 1718.74 2278.23 1721.81 2276.59 1725.61 C 2274.74 1729.81 2272.70 1733.93 2271.10 1738.24 C 2269.13 1743.23 2265.93 1747.58 2263.18 1752.15 C 2258.22 1761.81 2253.36 1771.54 2247.90 1780.93 C 2242.69 1788.90 2239.57 1798.10 2233.61 1805.61 C 2229.08 1813.67 2224.06 1821.44 2219.53 1829.51 C 2213.62 1840.31 2205.79 1849.87 2199.15 1860.20 C 2195.35 1866.61 2191.24 1872.84 2186.85 1878.86 C 2177.03 1893.55 2166.95 1908.08 2155.82 1921.81 C 2148.84 1931.14 2141.85 1940.47 2134.59 1949.57 C 2127.82 1955.95 2123.31 1964.23 2116.92 1970.93 C 2103.09 1987.07 2088.97 2002.93 2074.32 2018.35 C 2067.22 2026.87 2058.49 2033.90 2051.71 2042.70 C 2048.36 2046.37 2044.19 2049.16 2040.73 2052.72 C 2031.04 2062.72 2021.00 2072.38 2010.54 2081.57 C 2005.49 2085.82 2001.39 2091.11 1995.99 2094.95 C 1990.76 2098.67 1986.63 2103.64 1981.71 2107.71 C 1974.05 2114.05 1966.16 2120.11 1958.78 2126.77 C 1951.48 2132.83 1943.89 2138.53 1936.70 2144.72 C 1930.20 2149.50 1923.49 2154.07 1917.60 2159.63 C 1914.33 2162.83 1909.86 2164.38 1906.58 2167.57 C 1903.89 2170.01 1900.63 2171.63 1897.64 2173.64 C 1890.24 2178.90 1883.12 2184.59 1875.36 2189.33 C 1871.13 2192.09 1867.44 2195.65 1862.85 2197.87 C 1852.27 2204.53 1842.40 2212.32 1831.39 2218.32 C 1824.15 2222.27 1817.29 2226.80 1810.63 2231.65 C 1806.52 2234.92 1801.01 2235.61 1797.01 2239.04 C 1794.83 2240.72 1792.35 2241.92 1789.85 2243.04 C 1779.48 2248.59 1769.38 2254.65 1758.78 2259.78 C 1750.83 2264.20 1743.56 2270.26 1734.59 2272.53 C 1730.28 2273.87 1727.24 2277.61 1722.91 2278.92 C 1712.99 2283.25 1702.94 2287.32 1693.29 2292.26 C 1689.23 2294.41 1684.73 2295.54 1680.67 2297.70 C 1672.12 2301.93 1663.10 2305.16 1654.60 2309.51 C 1650.98 2311.04 1646.95 2311.47 1643.55 2313.54 C 1637.97 2316.88 1631.26 2317.38 1625.62 2320.56 C 1622.33 2322.31 1618.60 2322.86 1615.13 2324.10 C 1603.57 2328.33 1592.12 2332.88 1580.29 2336.30 C 1572.11 2339.23 1563.57 2341.17 1555.59 2344.63 C 1550.82 2347.18 1545.34 2347.52 1540.26 2349.12 C 1534.66 2351.00 1528.81 2352.02 1523.32 2354.22 C 1511.93 2357.08 1500.58 2360.05 1489.23 2363.07 C 1483.60 2364.54 1477.77 2365.23 1472.24 2367.10 C 1466.88 2368.71 1461.32 2369.41 1455.94 2370.92 C 1451.02 2372.29 1445.86 2372.46 1441.00 2374.04 C 1435.63 2375.46 1430.25 2376.96 1424.76 2377.77 C 1417.65 2378.17 1410.73 2379.96 1403.68 2380.84 C 1392.78 2383.13 1381.73 2384.63 1370.78 2386.59 C 1363.74 2386.11 1357.03 2388.71 1350.02 2388.65 C 1343.51 2389.67 1336.91 2390.01 1330.50 2391.53 C 1324.42 2392.60 1318.16 2391.31 1312.15 2392.89 C 1303.98 2394.76 1295.49 2393.09 1287.36 2395.13 C 1279.91 2396.56 1272.19 2394.77 1264.84 2396.86 C 1260.62 2397.81 1256.27 2397.46 1252.00 2397.57 C 1221.00 2397.76 1190.00 2397.83 1159.00 2397.64 C 1149.26 2397.23 1139.33 2398.51 1129.78 2396.08 C 1123.17 2395.26 1116.41 2396.35 1109.85 2394.99 C 1102.05 2393.16 1093.93 2394.65 1086.11 2392.92 C 1079.79 2391.25 1073.15 2392.79 1066.83 2391.19 C 1063.93 2390.47 1060.97 2390.01 1057.99 2389.99 C 1053.62 2389.93 1049.40 2388.58 1045.05 2388.45 C 1035.27 2388.03 1025.75 2385.46 1016.01 2384.70 C 1008.63 2383.49 1001.25 2382.34 993.95 2380.74 C 980.95 2379.50 968.08 2377.02 955.49 2373.54 C 949.62 2372.32 943.69 2371.41 937.83 2370.19 C 928.98 2368.31 920.47 2365.15 911.53 2363.67 C 905.13 2362.74 899.17 2360.07 892.80 2359.03 C 877.34 2355.14 862.19 2350.15 846.78 2346.09 C 836.93 2341.75 826.25 2339.85 816.30 2335.82 C 808.32 2333.07 800.20 2330.75 792.43 2327.45 C 787.24 2325.30 781.77 2324.08 776.46 2322.35 C 768.39 2318.72 759.95 2315.98 751.98 2312.10 C 736.20 2307.55 721.93 2299.23 706.74 2293.20 C 698.77 2289.27 690.87 2284.95 682.25 2282.61 C 678.76 2281.46 676.22 2278.63 673.06 2276.89 C 669.57 2274.96 666.01 2273.09 662.17 2272.00 C 655.67 2270.57 651.01 2265.37 644.89 2263.04 C 639.79 2261.16 635.51 2257.71 630.67 2255.33 C 623.83 2251.41 616.68 2248.07 609.89 2244.08 C 600.17 2237.17 589.06 2232.51 579.29 2225.70 C 556.02 2212.43 534.27 2196.76 511.88 2182.10 C 506.08 2178.27 501.15 2173.17 494.82 2170.16 C 489.84 2167.70 486.54 2163.06 481.97 2160.04 C 474.92 2155.13 468.42 2149.48 461.29 2144.70 C 457.83 2142.58 454.69 2140.00 451.93 2137.06 C 445.58 2131.32 438.92 2125.86 431.69 2121.28 C 428.14 2118.89 425.84 2115.16 422.45 2112.60 C 414.58 2106.51 407.76 2099.20 400.02 2092.96 C 393.79 2087.54 387.46 2082.21 381.73 2076.27 C 372.67 2068.68 364.74 2059.94 356.32 2051.68 C 342.92 2038.75 330.13 2025.20 317.02 2012.00 C 311.24 2004.80 304.84 1998.13 299.03 1990.96 C 291.69 1983.88 285.79 1975.55 278.89 1968.07 C 272.11 1959.23 264.72 1950.91 257.80 1942.19 C 252.55 1936.02 248.28 1929.11 243.13 1922.87 C 239.14 1916.64 233.65 1911.59 229.61 1905.40 C 223.65 1896.19 217.28 1887.21 210.06 1878.94 C 205.70 1873.12 203.60 1865.80 198.43 1860.56 C 195.27 1857.20 193.70 1852.74 190.69 1849.28 C 188.43 1846.63 187.27 1843.33 185.62 1840.33 C 180.24 1831.68 174.40 1823.28 169.79 1814.17 C 165.20 1806.49 159.20 1799.61 155.78 1791.26 C 148.24 1777.67 140.72 1764.05 133.82 1750.12 C 131.78 1746.54 129.00 1743.37 127.64 1739.44 C 125.80 1733.97 122.80 1729.04 120.22 1723.94 C 117.85 1717.46 113.60 1711.89 111.52 1705.29 C 107.54 1697.26 104.53 1688.78 100.17 1680.93 C 98.66 1677.20 95.85 1674.09 94.91 1670.14 C 92.89 1660.87 88.92 1652.14 84.18 1643.98 C 82.44 1637.64 80.27 1631.45 77.68 1625.41 C 74.92 1617.01 71.32 1608.93 68.53 1600.55 C 65.28 1589.94 61.33 1579.57 58.03 1568.99 C 56.06 1562.48 51.96 1556.72 51.06 1549.89 C 50.40 1543.93 47.54 1538.55 46.43 1532.70 C 45.34 1526.72 43.27 1520.99 41.82 1515.11 C 39.04 1506.51 37.38 1497.63 35.14 1488.90 C 33.03 1478.87 29.82 1469.10 28.24 1458.96 C 26.25 1447.29 21.20 1436.21 20.95 1424.27 C 18.51 1414.48 17.54 1404.42 15.31 1394.60 C 14.32 1388.92 13.86 1383.15 12.50 1377.55 C 11.10 1372.21 11.97 1366.61 10.71 1361.26 C 9.56 1356.23 9.47 1351.03 8.17 1346.04 C 6.72 1340.35 7.33 1334.43 6.32 1328.70 C 5.67 1324.83 5.63 1320.91 5.44 1317.01 C 5.25 1313.18 3.74 1309.59 3.26 1305.82 C 3.09 1302.52 4.69 1299.35 4.28 1296.06 C 3.74 1292.37 2.61 1288.78 2.36 1285.06 C 1.54 1278.54 2.54 1271.93 1.50 1265.43 C 0.73 1260.65 0.94 1255.80 0.86 1250.99 C 0.59 1220.66 0.55 1190.33 0.76 1160.01 C 1.02 1149.68 0.34 1139.28 1.90 1129.04 C 2.12 1121.15 1.68 1113.16 3.62 1105.44 C 5.01 1099.98 4.09 1094.30 4.95 1088.78 C 5.98 1081.75 5.11 1074.57 6.72 1067.61 C 7.17 1061.28 6.88 1054.85 8.86 1048.72 C 9.59 1041.79 11.64 1035.03 11.58 1028.03 C 11.85 1020.91 14.46 1014.11 14.79 1006.99 C 15.20 998.55 17.99 990.49 19.08 982.16 C 19.66 977.80 21.04 973.56 21.28 969.15 C 21.64 963.57 24.01 958.43 25.21 953.03 C 27.81 941.89 29.70 930.58 32.63 919.51 C 34.61 912.65 35.72 905.58 37.58 898.69 C 38.33 893.23 39.58 887.86 41.76 882.80 C 43.43 876.28 45.95 870.00 47.21 863.38 C 48.81 854.86 53.38 847.20 54.54 838.56 C 55.18 833.25 58.40 828.82 59.73 823.73 C 61.62 818.01 63.67 812.35 65.60 806.65 C 67.77 797.99 71.61 789.88 74.46 781.43 C 77.20 773.04 80.97 765.02 83.51 756.57 C 84.55 753.05 86.85 750.07 87.72 746.49 C 88.58 742.80 90.88 739.73 92.47 736.36 C 94.40 732.30 94.26 727.52 96.62 723.64 C 103.80 711.54 108.67 698.29 114.57 685.57 C 118.43 679.10 121.19 672.08 124.34 665.26 C 127.70 660.12 129.62 654.23 133.07 649.15 C 137.90 640.19 142.85 631.26 146.71 621.83 C 148.88 615.47 154.25 610.97 156.95 604.88 C 161.57 597.41 164.86 589.18 170.05 582.05 C 175.85 574.58 179.53 565.75 185.23 558.21 C 189.31 551.63 194.09 545.50 197.67 538.63 C 209.22 522.53 219.92 505.77 232.16 490.15 C 241.78 476.52 252.30 463.55 261.98 449.99 C 265.96 446.84 268.16 442.21 271.46 438.47 C 275.52 434.81 278.37 430.07 282.17 426.17 C 285.96 422.26 288.87 417.59 292.80 413.81 C 297.38 409.35 301.34 404.34 305.36 399.40 C 309.26 393.98 314.80 390.06 318.54 384.49 C 327.05 376.36 334.90 367.56 343.34 359.34 C 347.19 355.81 349.15 350.55 353.67 347.71 C 357.26 345.38 360.56 342.63 363.39 339.41 C 369.83 333.17 375.84 326.45 382.82 320.78 C 389.11 315.10 395.10 309.06 401.65 303.66 C 417.36 288.26 435.61 275.72 451.55 260.58 C 460.93 254.44 469.40 247.04 478.58 240.59 C 486.67 233.91 494.90 227.33 503.88 221.86 C 512.33 215.57 521.11 209.74 529.77 203.76 C 534.83 201.39 538.88 197.47 543.61 194.59 C 550.11 191.38 555.69 186.67 561.87 182.94 C 568.58 179.51 574.54 174.83 581.05 171.07 C 593.33 164.10 605.04 156.26 617.31 149.31 C 625.18 146.65 631.75 141.39 639.40 138.27 C 646.58 134.05 653.83 129.94 661.50 126.67 C 670.84 122.48 679.67 117.24 689.02 113.07 C 703.69 105.69 719.16 100.14 733.93 92.96 C 737.64 91.42 741.41 90.01 744.85 87.88 C 749.21 85.28 754.38 84.83 759.03 82.93 C 764.71 80.67 770.49 78.64 776.14 76.27 C 788.34 72.43 800.06 67.22 812.23 63.30 C 823.51 59.87 834.88 56.56 845.66 51.75 C 855.12 49.51 864.76 47.69 873.78 43.93 C 879.01 42.31 884.46 41.49 889.72 39.95 C 899.58 38.05 908.84 33.82 918.84 32.51 C 936.70 28.75 954.47 24.44 972.43 21.16 C 980.50 18.31 989.14 18.34 997.46 16.65 C 1007.91 14.41 1018.56 13.23 1028.97 10.82 C 1035.98 10.56 1042.96 9.70 1049.95 9.08 C 1055.76 7.74 1061.80 8.34 1067.57 6.82 C 1073.06 5.46 1078.78 6.49 1084.31 5.35 C 1092.92 3.59 1101.86 4.84 1110.44 2.80 C 1115.90 1.74 1121.48 2.12 1127.01 1.97 C 1130.72 1.90 1134.27 0.63 1137.99 0.51 C 1143.90 0.28 1149.84 0.71 1155.74 0.00 M 1164.46 20.82 C 1156.02 21.90 1147.54 22.74 1139.00 22.65 C 1132.97 22.51 1127.02 23.75 1121.00 23.62 C 1116.64 23.52 1112.39 24.65 1108.05 24.64 C 1099.30 24.61 1090.71 26.74 1081.97 26.67 C 1075.89 26.71 1070.05 28.94 1063.95 28.67 C 999.11 36.42 934.72 49.11 871.91 67.24 C 829.08 79.83 786.72 94.20 745.68 111.80 C 708.15 127.08 671.73 144.95 636.08 164.17 C 610.17 178.58 584.54 193.53 559.86 209.97 C 531.72 227.64 504.73 247.07 478.56 267.53 C 461.07 280.57 444.54 294.82 427.93 308.94 C 418.74 317.07 409.19 324.81 400.51 333.49 C 388.01 344.29 376.71 356.37 364.90 367.90 C 356.38 376.72 347.30 385.01 339.38 394.38 C 334.45 399.75 329.08 404.70 324.34 410.25 C 313.74 422.96 302.23 434.90 291.90 447.85 C 286.21 454.54 280.89 461.55 275.42 468.43 C 270.07 474.18 266.00 480.95 261.01 487.01 C 247.76 503.67 236.02 521.44 223.73 538.80 C 212.04 556.26 200.70 573.94 189.79 591.89 C 180.97 605.34 174.19 619.98 165.67 633.61 C 160.22 642.46 156.29 652.13 151.10 661.13 C 145.37 671.79 140.25 682.77 134.86 693.61 C 117.24 731.22 101.05 769.54 87.58 808.84 C 72.24 853.58 58.76 899.01 48.95 945.29 C 41.70 977.63 36.07 1010.35 31.72 1043.18 C 30.13 1052.20 29.55 1061.34 28.72 1070.43 C 26.82 1077.23 27.73 1084.32 26.54 1091.23 C 25.29 1099.77 24.82 1108.40 24.28 1117.01 C 22.93 1123.95 23.88 1131.06 22.88 1138.04 C 22.44 1142.17 22.78 1146.38 21.82 1150.47 C 21.04 1157.28 21.85 1164.19 20.82 1170.99 C 20.49 1179.65 20.73 1188.33 20.63 1197.00 C 20.84 1209.00 20.12 1221.04 21.35 1233.00 C 21.65 1238.39 21.04 1243.86 22.12 1249.20 C 22.82 1253.07 22.41 1257.05 23.00 1260.96 C 23.82 1267.27 22.98 1273.70 24.16 1279.99 C 25.01 1289.45 25.18 1298.98 26.44 1308.41 C 26.54 1316.35 28.74 1324.09 28.71 1332.04 C 30.54 1344.25 31.89 1356.53 33.65 1368.76 C 36.96 1388.48 39.68 1408.29 43.68 1427.90 C 48.76 1453.83 54.85 1479.55 61.54 1505.11 C 67.61 1526.47 73.90 1547.78 80.78 1568.90 C 102.77 1636.76 131.51 1702.42 166.04 1764.83 C 175.81 1781.44 184.47 1798.71 195.08 1814.82 C 207.17 1834.24 219.55 1853.49 232.73 1872.20 C 241.68 1884.86 250.45 1897.67 260.09 1909.83 C 271.29 1924.30 282.39 1938.86 294.16 1952.89 C 308.48 1969.51 322.43 1986.51 337.94 2002.07 C 348.09 2013.86 359.48 2024.52 370.40 2035.60 C 378.56 2043.44 386.19 2051.86 394.89 2059.13 C 402.24 2066.12 409.30 2073.45 417.35 2079.69 C 424.03 2086.03 431.33 2091.66 438.10 2097.91 C 464.94 2121.00 493.41 2142.08 522.02 2162.90 C 534.66 2172.03 547.93 2180.22 560.74 2189.09 C 574.27 2197.79 587.88 2206.41 601.96 2214.21 C 626.77 2229.33 652.40 2243.11 678.68 2255.51 C 705.12 2268.76 732.08 2280.96 759.62 2291.73 C 858.17 2331.71 962.39 2357.56 1067.98 2369.43 C 1073.03 2369.44 1077.95 2370.75 1082.97 2371.27 C 1091.68 2371.49 1100.30 2372.86 1109.01 2373.39 C 1123.04 2373.54 1136.94 2375.92 1151.00 2375.56 C 1159.05 2375.22 1166.95 2377.15 1175.00 2376.59 C 1180.73 2376.02 1186.28 2377.87 1192.00 2377.57 C 1198.65 2377.41 1205.32 2377.80 1211.96 2377.37 C 1219.54 2375.84 1227.32 2376.97 1235.00 2376.51 C 1240.37 2376.75 1245.61 2375.21 1250.98 2375.51 C 1259.02 2375.73 1266.98 2374.40 1275.02 2374.44 C 1286.97 2373.07 1299.04 2372.98 1310.98 2371.49 C 1376.73 2365.02 1442.04 2353.36 1505.93 2336.27 C 1546.85 2324.91 1587.42 2312.12 1626.99 2296.67 C 1647.62 2288.48 1668.25 2280.21 1688.23 2270.51 C 1704.44 2263.11 1720.33 2255.02 1736.39 2247.29 C 1748.37 2240.66 1760.73 2234.71 1772.51 2227.70 C 1798.25 2213.98 1822.85 2198.25 1847.28 2182.34 C 1863.85 2171.86 1879.89 2160.52 1895.48 2148.62 C 1918.65 2132.34 1940.53 2114.33 1962.11 2096.03 C 1968.74 2091.08 1974.61 2085.25 1980.90 2079.90 C 1992.76 2068.75 2005.22 2058.26 2016.58 2046.59 C 2029.04 2034.39 2041.32 2022.01 2053.52 2009.54 C 2066.72 1994.76 2080.73 1980.68 2093.41 1965.43 C 2100.60 1956.32 2108.57 1947.87 2115.56 1938.61 C 2121.38 1930.75 2128.20 1923.70 2133.65 1915.56 C 2144.73 1901.58 2154.68 1886.78 2165.41 1872.54 C 2177.51 1855.34 2188.92 1837.65 2199.90 1819.71 C 2209.19 1805.45 2217.79 1790.74 2225.86 1775.77 C 2240.10 1751.55 2252.55 1726.35 2264.82 1701.09 C 2276.22 1677.32 2286.09 1652.88 2295.83 1628.40 C 2311.83 1588.46 2324.74 1547.35 2336.34 1505.95 C 2347.80 1462.84 2356.90 1419.11 2363.58 1375.02 C 2367.49 1349.48 2370.12 1323.75 2372.62 1298.05 C 2372.83 1284.99 2375.18 1272.06 2374.76 1258.97 C 2375.33 1252.98 2375.82 1246.98 2375.71 1240.97 C 2377.24 1226.37 2376.44 1211.65 2376.68 1197.00 C 2376.35 1184.02 2377.25 1170.97 2375.74 1158.05 C 2375.59 1153.17 2375.75 1148.27 2375.29 1143.41 C 2374.10 1135.33 2375.33 1127.08 2373.77 1119.02 C 2373.36 1104.77 2372.03 1090.58 2370.85 1076.39 C 2369.30 1069.40 2369.64 1062.22 2368.22 1055.23 C 2362.59 1009.25 2354.23 963.53 2343.23 918.49 C 2331.30 868.26 2315.25 819.06 2296.36 771.03 C 2284.75 741.02 2272.02 711.44 2257.54 682.70 C 2243.20 651.84 2226.59 622.12 2209.07 592.96 C 2191.86 565.17 2174.41 537.46 2154.94 511.18 C 2146.43 498.45 2136.53 486.73 2127.63 474.28 C 2114.77 458.53 2102.33 442.42 2088.64 427.37 C 2083.72 421.63 2078.95 415.76 2073.63 410.38 C 2062.75 397.96 2051.34 386.01 2039.60 374.39 C 2019.71 354.27 1999.68 334.23 1978.06 315.96 C 1970.61 308.33 1961.78 302.27 1953.98 295.03 C 1939.18 282.80 1924.33 270.64 1908.98 259.12 C 1893.43 248.00 1878.09 236.61 1862.43 225.65 C 1846.97 215.67 1831.72 205.35 1815.99 195.78 C 1807.06 189.59 1797.24 184.87 1788.13 178.99 C 1735.24 148.06 1679.67 121.77 1622.55 99.65 C 1539.59 67.64 1452.93 45.29 1364.94 32.71 C 1358.31 32.37 1351.92 30.32 1345.26 30.26 C 1337.73 28.49 1329.95 29.00 1322.42 27.32 C 1316.68 26.18 1310.75 27.03 1305.02 25.78 C 1296.65 25.48 1288.34 24.56 1279.98 24.21 C 1273.70 23.03 1267.27 23.83 1260.97 22.91 C 1256.32 22.36 1251.64 22.69 1247.00 22.33 C 1242.02 21.43 1236.95 21.53 1231.99 20.58 C 1209.49 20.51 1186.94 20.07 1164.46 20.82 Z" />
<path fill="#2d3180" opacity="1.00" d=" M 1207.46 68.64 C 1228.50 66.67 1250.30 68.12 1270.16 75.78 C 1286.38 82.00 1300.60 93.46 1309.68 108.32 C 1319.42 124.01 1323.12 142.73 1323.34 161.01 C 1323.39 177.80 1321.62 194.85 1315.66 210.65 C 1309.45 227.13 1297.75 241.51 1282.69 250.69 C 1267.04 260.50 1248.27 264.15 1230.00 264.14 C 1210.80 264.22 1191.08 261.89 1173.58 253.55 C 1154.60 244.62 1140.35 227.34 1133.04 207.91 C 1126.64 190.53 1125.70 171.63 1127.23 153.33 C 1128.92 134.26 1134.80 115.06 1146.94 99.97 C 1161.45 81.42 1184.31 70.89 1207.46 68.64 M 1219.43 112.64 C 1206.98 113.87 1195.71 122.43 1191.03 134.01 C 1185.69 146.94 1185.02 161.25 1185.44 175.07 C 1186.05 187.28 1188.42 200.57 1197.40 209.58 C 1207.19 219.71 1222.73 221.96 1235.99 218.86 C 1245.50 216.61 1253.96 209.95 1257.95 200.97 C 1262.54 190.94 1263.81 179.79 1264.43 168.89 C 1264.96 157.41 1264.61 145.51 1260.26 134.72 C 1257.05 126.63 1250.74 119.82 1242.85 116.12 C 1235.60 112.70 1227.34 111.82 1219.43 112.64 Z" />
<path fill="#2d3180" opacity="1.00" d=" M 1361.83 246.67 C 1375.89 193.31 1389.60 139.86 1403.87 86.56 C 1426.46 92.48 1449.06 98.39 1471.65 104.30 C 1487.16 108.44 1503.17 111.78 1517.29 119.75 C 1531.67 127.66 1543.13 140.86 1548.64 156.35 C 1555.83 175.81 1554.46 197.27 1550.06 217.20 C 1546.34 232.49 1541.64 247.83 1533.37 261.34 C 1523.30 277.08 1507.55 289.39 1489.38 294.21 C 1478.84 297.03 1467.80 296.17 1457.06 295.27 C 1445.73 294.34 1434.89 290.81 1423.93 288.07 C 1401.27 282.18 1378.67 276.09 1355.97 270.37 C 1357.33 262.34 1359.94 254.59 1361.83 246.67 M 1449.61 143.18 C 1441.02 176.53 1432.18 209.81 1423.52 243.14 C 1431.21 245.32 1438.94 247.46 1446.79 249.01 C 1453.53 250.16 1460.83 251.13 1467.32 248.31 C 1475.14 244.86 1480.65 237.69 1484.07 230.05 C 1488.07 221.13 1490.74 211.68 1492.94 202.17 C 1495.09 192.11 1496.74 181.56 1494.46 171.37 C 1492.78 163.94 1487.46 157.81 1481.07 153.89 C 1471.55 147.93 1460.30 146.01 1449.61 143.18 Z" />
<path fill="#2d3180" opacity="1.00" d=" M 976.49 89.72 C 992.87 88.03 1009.89 89.35 1025.15 95.88 C 1040.21 102.25 1053.01 113.53 1061.61 127.40 C 1071.19 142.65 1076.12 160.32 1078.74 178.01 C 1081.03 193.94 1081.08 210.58 1075.89 225.99 C 1071.08 240.76 1061.73 253.96 1049.58 263.62 C 1037.50 273.27 1022.85 279.16 1007.94 282.80 C 989.57 287.16 970.23 289.40 951.58 285.55 C 935.69 282.30 921.25 273.55 910.19 261.80 C 897.56 248.70 890.01 231.52 885.75 214.02 C 881.08 195.00 879.43 174.70 884.62 155.61 C 888.91 139.49 898.40 124.85 911.28 114.26 C 929.61 99.21 953.26 92.35 976.49 89.72 M 973.34 135.21 C 966.33 136.11 959.37 138.44 953.68 142.71 C 946.55 148.06 941.71 156.26 940.30 165.04 C 938.37 176.79 940.21 188.78 942.87 200.27 C 945.31 210.38 948.70 220.56 955.08 228.92 C 961.37 237.20 971.59 242.31 982.00 242.30 C 990.34 242.30 998.77 240.23 1005.96 235.95 C 1013.77 231.31 1019.50 223.27 1021.12 214.29 C 1023.37 202.22 1021.44 189.86 1019.04 177.97 C 1016.42 166.17 1012.52 153.95 1003.92 145.08 C 996.11 137.04 984.34 133.57 973.34 135.21 Z" />
<path fill="#2d3180" opacity="1.00" d=" M 670.11 198.25 C 713.71 178.54 757.35 158.90 800.95 139.21 C 806.69 151.53 812.07 164.02 817.83 176.33 C 791.85 188.51 765.51 199.92 739.44 211.93 C 743.89 221.95 748.38 231.96 752.98 241.92 C 775.31 231.91 797.57 221.73 819.93 211.79 C 825.28 223.42 830.49 235.12 835.75 246.79 C 813.46 256.91 791.09 266.88 768.82 277.05 C 779.25 300.70 790.24 324.10 800.53 347.81 C 782.49 355.66 764.75 364.18 746.64 371.86 C 721.10 314.69 695.16 257.69 669.50 200.58 C 668.75 199.50 668.96 198.73 670.11 198.25 Z" />
<path fill="#2d3180" opacity="1.00" d=" M 1622.76 355.78 C 1677.05 315.57 1731.49 275.54 1785.95 235.55 C 1803.83 247.03 1821.51 258.82 1839.46 270.19 C 1829.75 315.99 1819.34 361.65 1809.39 407.40 C 1804.86 427.68 1800.50 448.00 1795.91 468.27 C 1778.61 457.32 1761.52 446.04 1744.38 434.85 C 1747.49 424.50 1750.45 414.11 1753.63 403.78 C 1735.23 391.34 1716.39 379.53 1697.85 367.30 C 1689.45 374.22 1681.35 381.49 1673.00 388.46 C 1656.22 377.61 1639.45 366.75 1622.76 355.78 M 1773.18 304.21 C 1759.13 316.07 1744.94 327.76 1730.97 339.71 C 1742.57 347.20 1754.04 354.90 1765.76 362.21 C 1772.12 339.67 1778.80 317.21 1784.94 294.62 C 1780.82 297.57 1777.09 301.00 1773.18 304.21 Z" />
<path fill="#2d3180" opacity="1.00" d=" M 1150.36 295.30 C 1174.87 294.39 1199.45 294.84 1223.99 294.80 C 1231.63 295.03 1239.30 294.65 1246.93 295.26 C 1252.78 296.63 1258.86 295.39 1264.74 296.61 C 1270.42 297.84 1276.28 297.42 1282.02 298.26 C 1288.00 299.28 1294.13 298.70 1300.06 300.23 C 1305.76 300.37 1311.29 302.02 1317.01 302.08 C 1321.82 302.48 1326.72 302.34 1331.41 303.69 C 1343.26 306.13 1355.35 307.40 1367.17 310.02 C 1375.71 312.78 1385.17 310.82 1393.44 314.58 C 1397.44 316.98 1402.20 317.18 1406.57 318.53 C 1411.62 320.11 1416.90 320.70 1421.98 322.13 C 1431.04 324.91 1440.50 326.29 1449.39 329.64 C 1461.01 332.69 1472.47 336.25 1483.79 340.33 C 1495.19 343.41 1505.91 348.52 1517.28 351.71 C 1531.15 357.53 1545.53 362.24 1558.98 369.01 C 1569.12 373.04 1578.85 377.98 1588.92 382.19 C 1597.37 386.87 1606.08 391.08 1614.79 395.26 C 1618.57 397.55 1622.49 399.61 1626.50 401.49 C 1632.41 404.23 1637.50 408.84 1644.10 409.99 C 1649.91 410.97 1652.64 416.89 1657.66 419.33 C 1675.57 429.38 1692.65 440.81 1709.56 452.46 C 1718.41 457.68 1726.32 464.30 1734.60 470.36 C 1751.19 481.91 1766.66 494.93 1782.37 507.62 C 1788.76 512.52 1794.10 518.60 1800.44 523.56 C 1808.33 530.30 1815.87 537.44 1823.54 544.44 C 1830.39 551.92 1838.10 558.55 1844.97 566.03 C 1855.03 575.64 1864.12 586.21 1873.68 596.31 C 1878.29 602.93 1884.42 608.25 1889.48 614.52 C 1901.25 628.81 1912.89 643.22 1923.90 658.12 C 1937.88 675.80 1949.82 694.94 1962.49 713.55 C 1973.18 730.69 1983.86 747.83 1993.29 765.71 C 1997.41 772.17 2000.14 779.39 2004.03 786.00 C 2008.68 793.56 2011.85 801.89 2016.20 809.62 C 2019.68 818.63 2024.51 827.05 2027.72 836.17 C 2032.12 845.10 2035.95 854.29 2039.51 863.58 C 2043.40 871.55 2045.09 880.46 2049.91 887.99 C 2051.77 894.64 2053.05 901.52 2056.12 907.78 C 2059.47 918.47 2062.78 929.18 2066.16 939.86 C 2068.71 946.13 2069.91 952.84 2071.70 959.35 C 2074.77 971.27 2077.62 983.25 2080.65 995.18 C 2082.71 1001.32 2083.55 1007.77 2084.85 1014.10 C 2089.31 1035.78 2093.60 1057.51 2096.21 1079.49 C 2097.02 1087.23 2097.19 1095.10 2099.11 1102.69 C 2099.89 1106.72 2099.15 1110.87 2099.93 1114.91 C 2100.86 1119.72 2100.17 1124.67 2101.26 1129.47 C 2102.18 1133.93 2102.01 1138.51 2102.00 1143.05 C 2101.88 1146.72 2103.06 1150.27 2103.02 1153.95 C 2103.26 1179.63 2103.33 1205.31 2103.14 1231.00 C 2102.97 1238.65 2103.41 1246.35 2102.07 1253.93 C 2102.48 1267.33 2099.41 1280.52 2099.44 1293.90 C 2096.22 1309.72 2096.39 1326.03 2092.99 1341.84 C 2092.41 1348.63 2090.04 1355.14 2089.90 1361.99 C 2089.60 1367.34 2087.47 1372.35 2086.37 1377.55 C 2084.33 1386.54 2083.10 1395.72 2080.38 1404.56 C 2074.24 1429.51 2068.23 1454.53 2059.88 1478.86 C 2058.75 1483.82 2058.85 1489.36 2055.66 1493.63 C 2051.13 1499.92 2052.30 1508.51 2047.79 1514.78 C 2044.60 1520.17 2043.71 1526.51 2040.99 1532.12 C 2038.05 1538.08 2035.96 1544.41 2033.41 1550.54 C 2031.28 1555.93 2028.17 1560.88 2026.33 1566.39 C 2024.95 1570.71 2022.53 1574.59 2020.79 1578.76 C 2016.53 1588.90 2011.12 1598.49 2006.46 1608.44 C 1999.87 1619.98 1994.54 1632.20 1987.49 1643.48 C 1984.86 1649.29 1981.29 1654.55 1977.90 1659.92 C 1973.01 1668.85 1967.43 1677.37 1962.03 1686.00 C 1957.55 1692.87 1952.52 1699.37 1948.46 1706.51 C 1934.83 1726.62 1920.28 1746.11 1905.14 1765.10 C 1899.08 1771.79 1894.23 1779.46 1887.95 1785.95 C 1884.03 1791.01 1879.24 1795.31 1875.47 1800.48 C 1872.53 1804.50 1868.82 1807.83 1865.41 1811.42 C 1834.50 1844.89 1801.30 1876.28 1765.69 1904.69 C 1749.28 1918.46 1731.54 1930.50 1714.53 1943.48 C 1702.52 1950.64 1691.44 1959.24 1679.45 1966.44 C 1675.42 1968.68 1671.94 1971.80 1667.69 1973.63 C 1663.47 1975.56 1660.39 1979.31 1656.08 1981.03 C 1651.35 1982.62 1647.79 1986.35 1643.19 1988.22 C 1635.83 1991.62 1629.34 1996.60 1621.84 1999.69 C 1609.88 2005.91 1598.10 2012.42 1585.73 2017.79 C 1580.27 2020.11 1575.11 2023.06 1569.71 2025.49 C 1558.37 2029.57 1547.87 2035.69 1536.42 2039.42 C 1530.88 2041.86 1525.12 2043.79 1519.70 2046.51 C 1513.53 2048.02 1507.51 2050.03 1501.70 2052.58 C 1490.08 2056.67 1478.25 2060.12 1466.73 2064.51 C 1447.88 2069.41 1429.37 2075.70 1410.20 2079.28 C 1405.18 2080.71 1400.14 2082.07 1395.00 2083.00 C 1386.66 2084.67 1378.48 2087.15 1370.01 2088.04 C 1354.99 2091.52 1339.70 2093.63 1324.45 2095.78 C 1320.64 2096.51 1316.81 2097.02 1312.94 2097.12 C 1305.64 2098.18 1298.31 2099.00 1290.99 2099.90 C 1285.60 2099.68 1280.35 2101.20 1274.98 2101.02 C 1270.67 2100.82 1266.47 2101.84 1262.27 2102.53 C 1257.95 2103.24 1253.54 2102.66 1249.23 2103.37 C 1243.87 2104.43 1238.39 2103.89 1232.99 2104.07 C 1206.31 2104.28 1179.63 2104.29 1152.97 2103.94 C 1146.03 2102.57 1138.90 2103.41 1132.00 2101.86 C 1125.74 2100.50 1119.29 2101.52 1113.04 2100.21 C 1103.31 2099.84 1093.72 2098.15 1084.07 2097.05 C 1077.91 2096.83 1071.87 2095.51 1065.79 2094.62 C 1055.54 2093.35 1045.38 2091.50 1035.23 2089.68 C 1028.38 2087.54 1021.10 2087.69 1014.25 2085.60 C 1005.45 2083.18 996.31 2082.22 987.66 2079.26 C 969.02 2076.26 951.24 2069.60 933.01 2064.87 C 923.91 2062.18 915.10 2058.65 906.01 2055.91 C 898.97 2053.94 892.29 2050.93 885.44 2048.42 C 874.68 2045.52 864.67 2040.48 854.26 2036.62 C 846.69 2033.84 839.59 2029.99 832.13 2026.95 C 824.97 2024.47 818.55 2020.33 811.51 2017.55 C 806.55 2015.79 802.20 2012.77 797.45 2010.56 C 794.59 2008.89 791.23 2008.33 788.45 2006.52 C 783.73 2003.43 778.70 2000.82 773.61 1998.39 C 767.20 1995.72 761.73 1991.34 755.37 1988.58 C 741.35 1979.86 726.83 1971.98 712.98 1962.99 C 705.23 1958.59 698.35 1952.91 690.81 1948.19 C 681.96 1942.44 673.42 1936.22 664.74 1930.24 C 654.55 1920.93 642.28 1914.23 632.27 1904.72 C 616.25 1892.55 601.62 1878.75 586.46 1865.56 C 580.92 1860.08 574.73 1855.29 569.55 1849.46 C 552.05 1832.26 534.66 1814.89 518.99 1795.99 C 511.80 1788.80 505.57 1780.74 499.09 1772.93 C 483.42 1754.39 469.47 1734.48 454.97 1715.03 C 450.52 1709.59 447.65 1703.11 443.52 1697.46 C 435.97 1686.80 429.22 1675.63 422.57 1664.40 C 418.30 1657.04 413.60 1649.92 409.55 1642.42 C 403.78 1632.94 399.34 1622.72 393.90 1613.06 C 390.95 1609.02 389.67 1604.13 387.21 1599.84 C 384.22 1594.44 381.84 1588.74 378.79 1583.39 C 371.06 1564.50 362.23 1546.08 354.97 1527.00 C 347.45 1508.10 341.69 1488.57 334.61 1469.51 C 331.80 1459.89 329.28 1450.20 326.46 1440.59 C 322.88 1429.35 321.16 1417.63 317.83 1406.33 C 314.32 1391.88 311.38 1377.33 308.57 1362.74 C 307.78 1355.73 305.01 1349.05 304.94 1341.97 C 304.81 1337.87 303.20 1334.03 302.70 1330.01 C 302.86 1322.24 301.06 1314.62 299.73 1307.01 C 299.38 1303.61 299.64 1300.17 298.99 1296.82 C 298.20 1292.96 298.84 1288.97 297.88 1285.16 C 297.16 1282.15 296.18 1279.06 297.09 1275.99 C 297.97 1272.59 296.47 1269.30 296.14 1265.97 C 294.48 1243.35 294.71 1220.66 294.63 1198.00 C 294.74 1176.05 294.47 1154.07 296.25 1132.18 C 297.89 1126.22 297.16 1120.03 298.13 1113.98 C 298.71 1109.94 298.20 1105.82 298.96 1101.81 C 299.88 1097.33 299.04 1092.68 300.30 1088.27 C 301.53 1081.90 303.08 1075.51 302.70 1068.99 C 303.84 1063.43 305.17 1057.90 305.31 1052.20 C 307.67 1042.52 308.98 1032.66 311.25 1022.97 C 311.98 1015.47 315.01 1008.46 316.01 1001.01 C 316.75 995.76 318.46 990.74 319.70 985.61 C 326.88 951.75 338.20 918.99 349.49 886.35 C 352.90 875.24 358.35 864.91 362.02 853.90 C 367.85 841.29 373.18 828.47 379.00 815.87 C 382.54 807.03 387.54 798.88 391.38 790.17 C 396.70 780.72 401.67 771.09 406.45 761.36 C 410.14 755.94 413.13 750.10 416.46 744.46 C 418.75 738.79 422.87 734.17 425.88 728.90 C 435.67 712.02 447.09 696.18 457.98 680.01 C 469.79 663.28 482.10 646.89 494.94 630.95 C 499.88 623.71 506.26 617.60 511.77 610.80 C 515.93 605.34 521.27 600.90 525.23 595.26 C 527.58 591.68 531.21 589.25 533.87 585.92 C 538.67 580.06 544.29 574.97 549.53 569.53 C 556.33 562.99 562.18 555.49 569.52 549.52 C 582.47 536.43 596.47 524.47 610.18 512.20 C 623.69 501.35 636.60 489.78 650.72 479.71 C 656.39 475.75 661.16 470.59 667.31 467.30 C 681.81 456.23 697.22 446.45 712.48 436.51 C 725.29 427.76 739.02 420.48 752.08 412.12 C 755.75 410.07 759.67 408.49 763.19 406.17 C 771.53 400.48 781.21 397.22 789.70 391.76 C 798.09 388.46 805.75 383.60 814.06 380.10 C 820.29 377.39 826.14 373.83 832.57 371.59 C 852.32 362.96 872.20 354.62 892.62 347.70 C 904.99 342.60 918.03 339.44 930.49 334.61 C 938.02 332.55 945.59 330.60 952.99 328.08 C 960.32 325.96 967.86 324.59 975.12 322.22 C 979.66 320.81 984.45 320.55 989.01 319.19 C 996.97 316.78 1005.29 315.85 1013.22 313.32 C 1017.61 311.86 1022.24 311.61 1026.78 310.95 C 1041.73 307.55 1056.97 305.67 1072.00 302.66 C 1082.72 302.44 1093.31 300.63 1103.90 299.13 C 1112.64 299.01 1121.28 297.51 1130.02 297.16 C 1136.68 295.31 1143.63 296.64 1150.36 295.30 M 1172.25 315.67 C 1169.52 316.10 1166.77 316.43 1164.01 316.41 C 1152.98 316.41 1142.01 317.62 1131.02 318.35 C 1125.29 318.11 1119.69 319.46 1113.99 319.59 C 1042.82 326.65 972.27 341.64 904.85 365.72 C 847.34 385.93 791.99 412.26 739.91 443.96 C 720.95 456.23 701.59 467.91 683.45 481.39 C 667.40 492.88 651.81 505.00 636.53 517.49 C 607.19 542.01 578.99 567.96 553.03 596.05 C 503.74 648.81 460.94 707.61 425.81 770.69 C 390.02 835.28 362.16 904.32 343.61 975.81 C 331.46 1022.89 322.96 1070.98 318.72 1119.40 C 317.61 1127.91 317.71 1136.51 316.62 1145.01 C 316.12 1151.20 316.75 1157.45 315.80 1163.60 C 315.04 1169.98 315.50 1176.42 315.08 1182.83 C 314.36 1189.52 314.72 1196.27 314.64 1203.00 C 314.77 1209.55 314.33 1216.14 315.15 1222.67 C 315.65 1228.76 315.18 1234.91 315.92 1241.00 C 316.96 1248.04 315.97 1255.23 317.22 1262.26 C 319.78 1301.26 325.31 1340.05 333.13 1378.35 C 338.44 1402.15 343.73 1425.99 350.86 1449.33 C 363.51 1492.14 379.31 1534.04 398.38 1574.40 C 460.54 1707.38 556.71 1824.09 674.81 1911.19 C 765.58 1978.16 869.27 2027.68 978.59 2055.57 C 1012.20 2064.28 1046.35 2070.88 1080.74 2075.59 C 1095.46 2077.46 1110.25 2078.89 1125.01 2080.39 C 1137.02 2080.81 1148.96 2082.58 1161.00 2082.47 C 1165.11 2082.32 1169.16 2083.16 1173.25 2083.44 C 1190.96 2083.64 1208.68 2083.78 1226.38 2083.33 C 1236.27 2081.78 1246.34 2082.91 1256.25 2081.48 C 1263.43 2080.24 1270.76 2080.86 1277.96 2079.66 C 1286.05 2079.60 1293.94 2077.58 1302.02 2077.37 C 1356.88 2070.65 1411.30 2059.59 1464.01 2042.85 C 1600.72 2000.02 1726.52 1923.08 1827.14 1821.13 C 1926.69 1720.72 2001.90 1596.12 2043.40 1460.91 C 2047.32 1447.20 2051.92 1433.67 2055.08 1419.76 C 2064.97 1381.79 2072.08 1343.12 2076.76 1304.18 C 2079.02 1283.17 2081.37 1262.14 2081.70 1240.99 C 2082.76 1233.37 2082.45 1225.67 2082.65 1218.00 C 2082.74 1200.00 2082.81 1181.99 2082.33 1163.99 C 2080.94 1155.29 2082.05 1146.43 2080.74 1137.74 C 2079.28 1113.68 2076.42 1089.73 2072.82 1065.89 C 2067.92 1032.09 2060.22 998.78 2051.72 965.73 C 2030.77 889.95 1999.85 816.93 1959.75 749.30 C 1903.76 654.86 1830.08 571.00 1743.66 503.31 C 1679.56 453.07 1608.50 411.75 1533.11 380.94 C 1451.52 347.33 1364.64 326.84 1276.83 318.96 C 1270.89 318.06 1264.83 318.67 1258.90 317.63 C 1248.91 317.27 1238.96 316.42 1228.98 316.19 C 1222.38 314.95 1215.65 315.61 1209.00 315.30 C 1196.75 315.27 1184.48 315.15 1172.25 315.67 Z" />
<path fill="#2d3180" opacity="1.00" d=" M 1134.71 352.47 C 1143.76 351.77 1152.88 352.06 1161.96 352.08 C 1165.85 351.76 1166.24 356.92 1164.17 359.17 C 1161.59 362.35 1159.20 365.69 1157.41 369.38 C 1148.70 381.97 1141.14 395.30 1133.62 408.58 C 1121.74 428.98 1111.27 450.14 1101.71 471.62 C 1100.92 475.56 1097.90 478.53 1097.51 482.59 C 1094.29 485.88 1095.34 490.89 1092.39 494.28 C 1090.88 496.50 1091.42 499.53 1089.61 501.63 C 1087.23 504.42 1088.93 508.67 1086.36 511.35 C 1083.76 514.06 1085.37 518.27 1083.19 521.20 C 1081.75 523.22 1081.57 526.16 1079.62 527.72 C 1073.53 529.49 1067.48 532.06 1061.00 531.64 C 1058.12 531.35 1055.86 533.29 1053.35 534.28 C 1049.95 535.26 1046.10 534.08 1042.95 535.99 C 1040.25 537.64 1037.09 538.06 1033.99 538.17 C 1029.87 538.12 1026.45 540.88 1022.41 541.24 C 1017.05 541.64 1012.40 544.82 1007.02 545.00 C 1003.71 545.11 1001.25 547.85 997.98 548.04 C 995.80 548.27 993.54 548.36 991.73 549.72 C 989.10 551.72 985.54 551.10 982.81 552.82 C 979.40 554.97 975.13 554.66 971.69 556.73 C 968.81 558.27 965.38 558.00 962.46 559.38 C 959.02 561.63 954.70 561.68 951.46 564.31 C 946.90 565.10 943.17 567.98 938.66 568.88 C 935.01 571.15 930.63 571.61 926.97 573.86 C 920.79 575.71 915.29 579.18 909.37 581.71 C 901.43 585.80 892.97 588.79 885.22 593.27 C 876.48 598.33 867.19 602.38 858.71 607.88 C 849.55 613.26 840.19 618.34 831.46 624.42 C 823.15 629.76 814.69 634.85 806.72 640.71 C 801.30 645.03 795.39 648.67 789.87 652.86 C 783.60 656.80 778.42 662.16 772.33 666.34 C 766.88 670.15 762.20 674.91 756.91 678.93 C 744.24 688.46 733.67 700.40 721.55 710.59 C 706.24 723.63 694.15 739.81 680.04 754.04 C 678.21 755.90 676.66 758.01 675.15 760.13 C 671.21 765.79 666.13 770.52 662.16 776.16 C 657.00 783.59 650.62 790.09 645.69 797.70 C 641.10 802.90 637.84 809.06 633.42 814.40 C 616.90 839.69 600.07 864.98 587.27 892.42 C 582.14 900.70 578.65 909.83 574.44 918.57 C 569.24 928.75 565.28 939.44 561.20 950.07 C 560.67 952.94 558.36 955.05 557.95 957.96 C 557.39 960.94 555.00 963.19 554.60 966.25 C 554.16 968.85 552.76 971.11 551.84 973.54 C 551.14 976.20 550.73 978.98 549.46 981.46 C 547.65 984.77 548.05 988.82 545.96 992.02 C 544.11 995.00 544.85 998.86 542.71 1001.72 C 540.40 1004.70 541.92 1008.88 539.77 1011.93 C 537.33 1015.41 538.48 1019.97 536.62 1023.69 C 534.04 1028.63 534.93 1034.49 532.53 1039.49 C 531.02 1042.69 531.30 1046.29 530.68 1049.70 C 530.26 1052.00 528.77 1053.90 528.15 1056.14 C 527.71 1058.68 527.94 1061.27 527.58 1063.83 C 527.09 1066.68 525.02 1069.03 524.81 1071.97 C 524.43 1076.03 524.73 1080.26 523.20 1084.14 C 521.02 1089.58 521.65 1095.55 520.65 1101.23 C 519.98 1106.16 518.50 1110.95 518.13 1115.93 C 517.50 1123.09 517.71 1130.35 516.19 1137.41 C 513.57 1149.45 514.80 1161.81 513.96 1174.01 C 513.57 1187.33 511.96 1200.68 513.23 1214.01 C 513.62 1226.69 514.55 1239.36 514.45 1252.05 C 514.29 1260.80 517.00 1269.25 517.48 1277.94 C 517.76 1285.00 518.03 1292.12 519.81 1299.01 C 521.72 1306.70 520.61 1314.93 523.58 1322.38 C 524.80 1325.79 524.33 1329.47 524.81 1333.01 C 525.12 1336.24 527.49 1338.86 527.67 1342.13 C 527.96 1345.35 527.64 1348.79 529.30 1351.73 C 531.82 1356.19 530.51 1361.62 532.69 1366.20 C 534.90 1371.00 534.09 1376.59 536.53 1381.35 C 538.50 1385.05 537.27 1389.67 539.78 1393.15 C 541.97 1396.11 540.31 1400.31 542.71 1403.20 C 545.05 1406.03 543.90 1410.10 545.93 1413.10 C 548.02 1416.03 547.51 1419.85 549.07 1423.01 C 549.99 1424.91 550.84 1426.86 551.20 1428.98 C 551.69 1432.88 554.37 1436.03 554.92 1439.93 C 555.23 1442.25 557.31 1443.82 557.71 1446.13 C 558.13 1448.75 559.44 1451.07 560.58 1453.44 C 561.93 1457.94 564.08 1462.13 565.51 1466.60 C 567.55 1470.09 568.17 1474.17 570.40 1477.57 C 572.21 1483.36 575.70 1488.45 577.96 1494.08 C 581.54 1503.11 586.30 1511.59 590.88 1520.15 C 602.98 1544.02 617.27 1566.69 632.12 1588.91 C 633.02 1589.74 634.12 1591.26 635.47 1590.32 C 643.63 1586.79 651.15 1581.97 659.16 1578.15 C 691.47 1560.83 721.94 1540.26 751.18 1518.22 C 758.18 1511.76 766.51 1506.98 773.31 1500.30 C 779.08 1494.69 785.95 1490.36 791.66 1484.68 C 800.54 1476.22 809.36 1467.70 818.25 1459.26 C 829.75 1446.41 842.85 1434.98 853.13 1421.08 C 857.58 1415.56 862.98 1410.82 866.81 1404.81 C 870.49 1399.25 875.51 1394.74 879.11 1389.11 C 903.71 1357.31 924.93 1322.98 943.42 1287.32 C 947.22 1280.60 949.97 1273.35 953.44 1266.46 C 959.87 1253.53 964.99 1239.94 970.71 1226.73 C 973.45 1219.78 976.06 1212.72 978.48 1205.61 C 978.93 1201.46 981.61 1198.07 982.24 1194.00 C 982.65 1190.78 985.12 1188.33 985.45 1185.09 C 985.80 1181.45 988.77 1178.69 988.78 1174.99 C 988.97 1170.76 991.58 1167.18 992.04 1163.00 C 992.57 1157.80 995.55 1153.26 995.88 1148.03 C 996.12 1144.78 998.46 1142.18 998.67 1138.95 C 998.92 1135.85 999.19 1132.68 1000.76 1129.93 C 1002.90 1125.99 1001.39 1121.21 1003.30 1117.21 C 1005.81 1112.25 1004.82 1106.47 1006.38 1101.25 C 1007.80 1096.27 1008.58 1091.13 1009.03 1085.99 C 1009.64 1078.22 1012.35 1070.76 1012.39 1062.93 C 1012.40 1057.97 1013.16 1053.05 1014.46 1048.28 C 1015.97 1042.64 1015.49 1036.77 1015.74 1031.02 C 1016.12 1018.65 1018.13 1006.42 1018.39 994.05 C 1018.36 983.70 1018.37 973.35 1018.37 963.00 C 1018.82 948.26 1015.92 933.71 1015.70 918.99 C 1015.56 913.52 1015.80 907.95 1014.19 902.66 C 1011.52 894.72 1013.00 886.20 1010.98 878.14 C 1008.81 869.11 1009.10 859.67 1006.42 850.76 C 1004.80 845.50 1005.86 839.70 1003.31 834.70 C 1001.29 830.51 1003.09 825.47 1000.57 821.44 C 998.04 817.56 999.63 812.60 997.41 808.62 C 995.25 804.69 996.02 799.96 994.10 795.95 C 992.40 792.17 992.40 787.92 990.95 784.08 C 988.49 779.35 989.06 773.74 986.07 769.22 C 985.59 764.21 982.57 760.07 981.74 755.16 C 980.21 751.78 978.87 748.34 978.11 744.70 C 975.95 740.04 974.86 735.01 972.59 730.40 C 971.88 726.71 969.23 723.82 968.60 720.13 C 963.44 707.91 958.71 695.38 952.55 683.55 C 949.90 678.50 950.93 672.74 952.73 667.63 C 954.48 665.27 955.43 662.46 957.03 660.01 C 961.37 654.64 964.46 648.32 969.56 643.55 C 974.25 639.23 978.50 634.24 984.21 631.21 C 987.17 629.46 989.67 626.93 992.93 625.71 C 995.43 624.86 997.25 622.60 999.97 622.28 C 1002.34 621.93 1004.17 620.28 1006.31 619.35 C 1008.11 618.98 1009.96 618.98 1011.78 618.64 C 1013.61 617.90 1015.12 616.49 1017.04 615.91 C 1020.57 615.38 1024.18 616.06 1027.70 615.43 C 1032.93 613.68 1038.40 612.09 1043.97 612.76 C 1048.81 613.25 1053.88 611.68 1058.55 613.43 C 1062.55 615.85 1061.18 621.12 1061.27 625.00 C 1061.47 630.25 1059.87 635.24 1058.34 640.18 C 1057.30 649.38 1058.66 658.82 1056.60 667.94 C 1055.73 671.58 1054.59 675.21 1054.61 678.99 C 1054.62 707.33 1053.99 735.66 1054.56 764.00 C 1055.01 775.19 1053.41 786.63 1056.34 797.60 C 1058.55 806.27 1057.63 815.27 1058.05 824.11 C 1058.26 827.67 1060.20 830.81 1060.75 834.31 C 1061.61 839.48 1061.02 844.75 1061.32 849.96 C 1061.49 852.85 1063.21 855.33 1063.92 858.10 C 1065.65 863.81 1063.20 870.23 1066.33 875.60 C 1069.55 881.34 1065.99 888.56 1069.78 894.12 C 1071.96 897.64 1070.96 901.92 1071.43 905.83 C 1071.72 908.53 1074.24 910.45 1074.39 913.21 C 1074.87 916.78 1073.65 920.86 1076.12 923.91 C 1079.46 928.06 1076.38 934.04 1079.76 938.18 C 1082.49 941.76 1079.84 946.83 1082.72 950.31 C 1084.81 952.73 1084.42 956.01 1084.73 958.98 C 1084.72 961.43 1086.82 963.10 1087.62 965.30 C 1088.14 968.32 1087.63 971.70 1089.72 974.25 C 1091.95 977.18 1090.43 981.34 1092.70 984.28 C 1095.46 987.57 1093.82 992.31 1096.35 995.69 C 1098.57 998.55 1097.34 1002.61 1099.52 1005.50 C 1100.88 1007.32 1101.14 1009.59 1101.52 1011.78 C 1101.89 1014.45 1104.33 1016.34 1104.44 1019.10 C 1104.45 1022.79 1107.65 1025.36 1107.95 1028.99 C 1108.01 1031.74 1110.45 1033.52 1110.96 1036.12 C 1111.44 1040.63 1114.66 1044.14 1115.23 1048.65 C 1117.79 1051.97 1117.99 1056.29 1120.22 1059.78 C 1121.34 1061.82 1121.35 1064.33 1122.80 1066.23 C 1124.77 1068.70 1124.58 1072.09 1126.37 1074.66 C 1142.95 1113.77 1164.20 1150.99 1181.50 1189.86 C 1188.26 1202.73 1193.49 1216.34 1199.39 1229.63 C 1201.33 1232.07 1201.28 1235.41 1203.02 1237.99 C 1204.67 1240.57 1204.88 1243.79 1206.65 1246.32 C 1208.25 1248.48 1207.70 1251.48 1209.42 1253.59 C 1211.60 1256.27 1210.93 1260.14 1213.14 1262.81 C 1214.98 1265.10 1214.53 1268.34 1216.35 1270.66 C 1218.29 1273.24 1217.56 1276.86 1219.62 1279.40 C 1221.66 1281.92 1220.91 1285.53 1222.83 1288.14 C 1225.05 1290.94 1224.15 1294.89 1226.39 1297.71 C 1228.28 1300.31 1227.49 1303.93 1229.56 1306.45 C 1231.12 1308.25 1231.26 1310.63 1231.51 1312.91 C 1231.68 1315.06 1233.56 1316.50 1234.28 1318.48 C 1234.60 1320.23 1234.62 1322.04 1235.01 1323.82 C 1235.81 1325.96 1237.94 1327.57 1237.86 1330.03 C 1238.02 1332.22 1238.04 1334.60 1239.63 1336.35 C 1242.37 1339.32 1240.20 1343.99 1243.05 1346.94 C 1244.75 1348.89 1244.50 1351.55 1244.73 1353.97 C 1244.68 1356.70 1247.23 1358.53 1247.64 1361.15 C 1247.89 1363.03 1247.88 1364.96 1248.20 1366.87 C 1248.75 1368.79 1250.29 1370.24 1251.02 1372.11 C 1251.34 1374.25 1251.17 1376.45 1251.53 1378.62 C 1252.28 1380.62 1253.79 1382.30 1254.30 1384.42 C 1254.72 1386.86 1254.33 1389.39 1254.93 1391.82 C 1255.68 1393.33 1256.80 1394.66 1257.45 1396.26 C 1258.12 1399.07 1257.74 1402.02 1258.23 1404.88 C 1258.90 1407.04 1260.47 1408.80 1261.03 1411.03 C 1261.43 1413.58 1261.12 1416.20 1261.50 1418.78 C 1262.14 1421.10 1263.89 1422.98 1264.36 1425.37 C 1264.76 1428.54 1264.45 1431.76 1264.90 1434.94 C 1265.66 1437.39 1267.47 1439.48 1267.77 1442.11 C 1268.13 1445.35 1267.73 1448.64 1268.19 1451.89 C 1268.80 1454.68 1270.66 1457.07 1271.02 1459.96 C 1271.47 1463.60 1271.05 1467.29 1271.35 1470.96 C 1271.54 1474.33 1273.99 1477.05 1274.30 1480.42 C 1275.16 1487.70 1273.42 1495.34 1276.36 1502.31 C 1279.51 1514.24 1276.76 1526.77 1278.38 1538.91 C 1280.11 1550.77 1281.59 1562.87 1279.81 1574.82 C 1278.86 1584.86 1277.51 1594.89 1277.88 1605.00 C 1277.62 1611.70 1278.54 1618.72 1276.03 1625.11 C 1273.13 1632.13 1275.62 1639.93 1273.98 1647.19 C 1273.22 1649.83 1271.49 1652.20 1271.37 1655.03 C 1270.84 1659.85 1272.15 1665.15 1269.54 1669.55 C 1267.22 1672.96 1268.23 1677.22 1267.86 1681.09 C 1267.90 1684.41 1264.70 1686.68 1264.69 1689.99 C 1264.45 1692.41 1264.71 1694.90 1264.18 1697.32 C 1263.52 1699.10 1262.29 1700.63 1261.59 1702.42 C 1261.10 1704.86 1261.47 1707.40 1260.99 1709.87 C 1260.27 1711.71 1259.02 1713.31 1258.34 1715.19 C 1257.89 1717.35 1257.98 1719.60 1257.63 1721.81 C 1256.91 1723.98 1254.92 1725.64 1254.77 1728.03 C 1254.54 1730.41 1254.52 1732.95 1252.93 1734.93 C 1250.66 1737.69 1252.03 1741.83 1249.49 1744.45 C 1247.60 1746.38 1248.12 1749.22 1247.56 1751.66 C 1246.90 1753.27 1245.64 1754.55 1244.94 1756.16 C 1244.43 1758.26 1244.82 1760.70 1243.48 1762.56 C 1241.05 1765.54 1241.24 1769.70 1238.70 1772.63 C 1237.94 1776.60 1235.39 1779.84 1234.43 1783.74 C 1224.82 1805.50 1214.11 1826.98 1201.58 1847.32 C 1194.92 1858.58 1187.61 1869.45 1180.30 1880.30 C 1176.49 1884.32 1174.25 1889.47 1170.59 1893.60 C 1166.94 1897.69 1164.65 1902.81 1160.74 1906.71 C 1154.84 1912.59 1150.97 1920.15 1144.90 1925.90 C 1134.94 1935.65 1126.79 1947.07 1116.72 1956.72 C 1111.49 1961.81 1106.73 1967.44 1100.82 1971.80 C 1089.72 1980.28 1080.63 1991.01 1069.81 1999.81 C 1065.42 2003.04 1061.09 2006.36 1057.14 2010.14 C 1053.17 2013.95 1048.11 2016.33 1044.12 2020.12 C 1038.28 2025.69 1030.04 2028.58 1025.56 2035.60 C 1022.23 2035.70 1018.80 2036.08 1015.57 2035.16 C 1012.48 2033.68 1009.63 2031.36 1006.04 2031.41 C 1000.79 2031.32 996.11 2028.68 990.97 2028.10 C 985.16 2027.45 979.85 2024.84 974.12 2023.85 C 968.93 2021.73 963.35 2021.03 958.12 2019.08 C 940.39 2014.45 923.33 2007.66 905.91 2001.98 C 898.77 1999.15 891.49 1996.60 884.53 1993.33 C 868.79 1987.73 853.73 1980.38 838.62 1973.38 C 829.42 1969.59 820.71 1964.63 811.79 1960.19 C 800.13 1953.92 788.08 1948.32 776.69 1941.60 C 770.29 1938.30 764.47 1933.95 757.97 1930.84 C 746.61 1923.24 734.80 1916.30 723.45 1908.67 C 719.17 1906.86 716.31 1902.94 712.18 1900.90 C 707.69 1898.50 704.26 1894.60 699.78 1892.20 C 695.72 1890.09 692.77 1886.39 688.69 1884.32 C 684.48 1881.98 681.39 1878.22 677.65 1875.29 C 673.98 1872.66 670.04 1870.40 666.81 1867.22 C 662.39 1862.86 656.78 1859.99 652.33 1855.67 C 646.30 1850.01 640.18 1844.44 633.74 1839.25 C 624.60 1832.14 616.81 1823.53 608.31 1815.71 C 595.04 1803.63 583.14 1790.20 570.54 1777.46 C 564.02 1770.91 558.85 1763.21 552.49 1756.52 C 548.02 1751.64 543.29 1746.96 539.56 1741.48 C 536.00 1735.81 530.66 1731.55 527.17 1725.84 C 524.07 1720.71 519.21 1716.96 516.17 1711.79 C 514.46 1708.63 511.97 1706.03 509.73 1703.27 C 493.86 1680.87 478.46 1658.04 464.85 1634.17 C 456.02 1620.26 449.02 1605.33 440.96 1590.98 C 416.79 1543.09 395.85 1493.43 381.01 1441.79 C 379.07 1437.73 379.06 1433.09 377.15 1429.03 C 375.57 1425.24 375.63 1421.00 374.03 1417.22 C 372.15 1412.78 372.56 1407.77 370.61 1403.36 C 368.71 1398.98 369.30 1394.01 367.48 1389.62 C 366.23 1386.57 365.86 1383.28 365.54 1380.05 C 365.16 1375.23 362.53 1370.90 362.43 1366.04 C 362.26 1362.20 361.55 1358.42 360.26 1354.80 C 358.18 1348.98 359.61 1342.59 357.47 1336.80 C 355.77 1332.05 355.55 1326.98 355.47 1322.00 C 355.45 1316.43 353.12 1311.23 352.60 1305.74 C 351.84 1298.54 352.70 1291.20 351.00 1284.10 C 349.05 1275.86 348.84 1267.36 348.80 1258.94 C 348.74 1250.46 344.81 1242.50 344.97 1234.01 C 344.94 1213.34 344.96 1192.67 344.96 1172.00 C 344.61 1163.47 348.60 1155.52 348.78 1147.04 C 348.88 1138.81 348.94 1130.49 350.81 1122.43 C 353.25 1112.71 351.03 1102.46 353.95 1092.82 C 356.47 1085.14 354.56 1076.79 357.36 1069.17 C 359.67 1063.09 358.12 1056.35 360.39 1050.26 C 361.70 1046.83 362.24 1043.20 362.43 1039.56 C 362.56 1034.05 365.66 1029.16 365.74 1023.64 C 365.84 1018.53 368.72 1014.05 369.05 1009.00 C 369.41 1003.25 372.72 998.22 372.78 992.40 C 374.96 986.71 375.72 980.65 377.75 974.93 C 387.57 938.52 400.77 903.04 415.50 868.35 C 419.79 859.89 422.77 850.81 427.40 842.51 C 431.70 832.98 436.43 823.69 441.38 814.47 C 447.36 801.21 455.06 788.82 461.90 775.99 C 470.94 760.22 481.14 745.15 490.72 729.71 C 495.47 722.50 500.52 715.52 505.32 708.37 C 509.51 704.05 511.89 698.37 516.03 694.02 C 520.32 689.54 523.02 683.82 527.39 679.40 C 532.29 674.50 535.33 668.13 540.17 663.17 C 545.55 657.79 549.46 651.18 554.72 645.70 C 564.74 635.05 574.14 623.84 584.39 613.40 C 597.38 599.39 611.69 586.70 625.54 573.56 C 633.85 566.56 641.22 558.49 650.03 552.09 C 655.84 547.94 660.44 542.31 666.56 538.56 C 672.67 534.77 677.19 528.95 683.53 525.49 C 688.13 522.05 692.14 517.82 697.42 515.34 C 702.35 510.81 708.47 507.96 713.44 503.49 C 728.85 493.08 744.59 483.31 760.30 473.38 C 769.10 469.05 777.19 463.36 785.94 458.92 C 803.68 448.97 821.75 439.52 840.33 431.21 C 858.68 422.06 877.84 414.63 896.90 407.07 C 903.90 404.06 911.14 401.68 918.35 399.23 C 929.58 395.44 940.66 391.14 952.16 388.16 C 956.61 386.44 961.42 385.97 965.82 384.11 C 969.40 382.54 973.46 382.61 977.04 381.02 C 981.27 379.05 986.10 379.28 990.38 377.43 C 994.82 375.58 999.86 376.27 1004.29 374.32 C 1009.20 372.13 1014.89 373.18 1019.71 370.69 C 1024.47 368.42 1030.00 369.96 1034.82 367.91 C 1039.01 366.15 1043.58 366.05 1048.05 365.71 C 1052.93 365.43 1057.33 362.82 1062.24 362.65 C 1066.99 362.42 1071.79 362.09 1076.39 360.73 C 1083.27 358.78 1090.49 359.54 1097.50 358.56 C 1101.71 358.00 1105.68 356.24 1109.95 356.01 C 1114.30 355.72 1118.68 355.86 1123.05 355.66 C 1127.21 355.72 1130.54 352.51 1134.71 352.47 Z" />
<path fill="#2d3180" opacity="1.00" d=" M 1865.90 431.90 C 1893.51 405.24 1921.13 378.58 1948.83 352.02 C 1962.35 366.07 1975.92 380.07 1989.40 394.16 C 1961.41 421.59 1932.94 448.54 1904.84 475.87 C 1899.71 481.05 1895.61 487.63 1894.74 494.99 C 1893.68 502.52 1896.32 510.17 1900.83 516.15 C 1905.73 522.67 1912.24 528.37 1920.15 530.81 C 1926.92 532.93 1934.46 532.05 1940.71 528.72 C 1946.29 525.95 1950.71 521.45 1955.13 517.15 C 1971.94 500.96 1988.74 484.76 2005.56 468.57 C 2015.28 459.38 2024.64 449.78 2034.62 440.88 C 2047.93 455.09 2061.61 468.94 2075.05 483.03 C 2047.44 509.76 2019.73 536.39 1992.03 563.04 C 1979.32 574.74 1963.44 583.83 1946.03 585.74 C 1932.99 587.00 1919.34 585.52 1907.59 579.43 C 1892.45 571.71 1879.92 559.82 1868.82 547.14 C 1860.66 537.48 1852.30 527.74 1846.71 516.31 C 1842.22 507.26 1840.26 497.08 1840.49 487.02 C 1840.72 476.63 1842.71 466.07 1847.82 456.93 C 1852.87 447.94 1858.65 439.27 1865.90 431.90 Z" />
<path fill="#2d3180" opacity="1.00" d=" M 331.77 469.96 C 345.12 455.75 358.80 441.84 372.17 427.65 C 385.31 439.54 397.82 452.13 410.71 464.29 C 427.90 480.77 445.09 497.25 462.28 513.73 C 466.79 517.89 470.98 522.41 475.73 526.32 C 496.75 504.37 517.71 482.34 538.88 460.53 C 550.18 471.26 561.45 482.03 572.61 492.91 C 538.09 529.09 503.35 565.07 468.84 601.27 C 441.38 575.38 414.31 549.06 387.00 523.00 C 368.60 505.31 350.10 487.72 331.77 469.96 Z" />
<path fill="#2d3180" opacity="1.00" d=" M 2077.96 563.36 C 2091.42 555.50 2104.61 547.17 2118.04 539.25 C 2147.69 587.89 2177.07 636.69 2206.65 685.38 C 2207.92 687.47 2209.15 689.60 2210.35 691.77 C 2196.96 699.83 2183.65 708.03 2170.22 716.01 C 2159.86 698.99 2149.68 681.86 2139.19 664.93 C 2098.55 689.67 2057.83 714.26 2017.14 738.90 C 2006.94 722.24 1996.92 705.47 1986.72 688.81 C 2027.25 663.85 2068.10 639.41 2108.79 614.70 C 2098.67 597.50 2087.92 580.65 2077.96 563.36 Z" />
<path fill="#2d3180" opacity="1.00" d=" M 219.89 630.88 C 231.14 612.69 242.36 594.49 253.87 576.48 C 320.01 589.77 386.15 603.08 452.30 616.30 C 442.04 633.99 430.78 651.11 420.04 668.52 C 409.45 665.81 399.01 662.52 388.36 660.03 C 378.39 676.44 368.08 692.65 357.96 708.97 C 356.50 711.53 354.48 713.84 353.55 716.67 C 360.57 724.84 367.96 732.70 374.99 740.88 C 364.33 757.77 353.98 774.86 343.18 791.66 C 301.97 738.16 261.00 684.46 219.89 630.88 M 278.71 630.50 C 294.03 648.36 309.53 666.06 325.07 683.73 C 332.48 672.06 339.84 660.36 346.97 648.53 C 324.20 642.59 301.49 636.42 278.71 630.50 Z" />
<path fill="#2d3180" opacity="1.00" d=" M 137.03 804.84 C 143.02 787.40 148.76 769.87 154.83 752.46 C 214.74 772.66 274.60 792.99 334.51 813.21 C 328.76 830.78 322.78 848.28 316.78 865.77 C 276.46 876.93 236.18 888.27 195.87 899.48 C 212.84 905.60 230.04 911.07 247.09 916.96 C 262.73 922.17 278.28 927.68 293.98 932.71 C 288.56 950.29 282.16 967.57 276.52 985.09 C 216.52 965.27 156.81 944.54 96.86 924.58 C 102.11 907.00 108.40 889.71 114.29 872.33 C 154.74 861.22 195.15 849.92 235.55 838.63 C 232.07 836.79 228.25 835.81 224.56 834.52 C 195.39 824.61 166.17 814.86 137.03 804.84 Z" />
<path fill="#2d3180" opacity="1.00" d=" M 2060.89 817.19 C 2120.85 797.09 2180.88 777.21 2240.86 757.18 C 2247.19 775.71 2253.35 794.30 2259.46 812.90 C 2238.53 819.96 2217.52 826.78 2196.63 833.93 C 2203.34 854.10 2209.91 874.32 2216.79 894.44 C 2237.81 887.59 2258.67 880.27 2279.76 873.65 C 2285.81 892.34 2292.44 910.85 2298.18 929.64 C 2243.23 947.79 2188.35 966.19 2133.44 984.46 C 2128.36 986.11 2123.35 987.95 2118.21 989.39 C 2112.21 970.67 2105.47 952.19 2099.84 933.37 C 2123.97 925.57 2147.92 917.21 2172.08 909.48 C 2170.54 902.29 2167.59 895.49 2165.47 888.47 C 2160.99 875.23 2156.73 861.93 2152.14 848.74 C 2127.86 856.67 2103.69 864.97 2079.39 872.83 C 2073.28 854.27 2067.01 835.75 2060.89 817.19 Z" />
<path fill="#2d3180" opacity="1.00" d=" M 150.48 1010.66 C 166.90 1009.67 183.47 1011.47 199.37 1015.62 C 213.99 1019.47 227.91 1026.59 238.71 1037.29 C 250.70 1049.03 258.70 1064.63 261.73 1081.10 C 264.90 1098.22 263.73 1115.86 260.66 1132.90 C 257.55 1149.33 251.54 1165.71 240.40 1178.44 C 226.62 1194.18 206.70 1204.11 186.01 1206.66 C 169.95 1208.66 153.57 1207.60 137.76 1204.24 C 121.13 1200.60 105.01 1193.25 92.66 1181.34 C 82.55 1171.69 75.12 1159.35 71.08 1145.99 C 66.01 1129.46 65.76 1111.83 67.84 1094.79 C 69.89 1078.26 74.54 1061.75 83.67 1047.68 C 91.04 1036.20 101.45 1026.70 113.58 1020.46 C 124.97 1014.51 137.72 1011.53 150.48 1010.66 M 145.43 1069.69 C 135.72 1070.89 126.09 1075.12 119.89 1082.90 C 113.28 1090.91 110.89 1101.70 111.47 1111.89 C 112.11 1122.91 118.38 1133.41 127.81 1139.15 C 136.83 1144.68 147.44 1146.81 157.80 1148.14 C 169.93 1149.46 182.51 1149.93 194.29 1146.26 C 203.61 1143.44 211.58 1136.48 215.54 1127.57 C 218.80 1120.19 219.73 1111.89 218.90 1103.91 C 217.90 1094.23 212.63 1084.91 204.34 1079.67 C 196.45 1074.70 187.21 1072.46 178.12 1070.90 C 167.33 1069.23 156.30 1068.20 145.43 1069.69 Z" />
<path fill="#2d3180" opacity="1.00" d=" M 2218.48 1015.68 C 2235.04 1014.11 2252.12 1014.79 2268.00 1020.13 C 2283.41 1025.20 2297.27 1034.97 2307.07 1047.93 C 2316.62 1060.42 2322.25 1075.54 2324.98 1090.94 C 2327.50 1105.38 2328.17 1120.21 2326.38 1134.77 C 2324.42 1150.34 2318.88 1165.68 2309.04 1178.02 C 2300.10 1189.46 2287.85 1198.09 2274.38 1203.38 C 2258.73 1209.61 2241.76 1211.75 2225.01 1211.96 C 2209.38 1212.04 2193.39 1209.85 2179.25 1202.87 C 2162.70 1194.94 2149.25 1181.00 2141.50 1164.41 C 2134.56 1149.62 2131.77 1133.25 2130.98 1117.05 C 2130.15 1100.23 2131.56 1082.89 2138.21 1067.25 C 2144.19 1053.05 2154.84 1041.17 2167.47 1032.50 C 2182.46 1022.18 2200.55 1017.43 2218.48 1015.68 M 2219.45 1074.66 C 2206.39 1076.44 2192.17 1079.81 2183.22 1090.24 C 2173.42 1101.51 2172.94 1118.32 2178.28 1131.71 C 2181.67 1140.00 2188.56 1146.84 2197.04 1149.86 C 2205.65 1152.92 2214.91 1153.41 2223.98 1153.29 C 2235.93 1152.94 2248.13 1151.82 2259.32 1147.31 C 2270.11 1143.21 2278.90 1133.91 2281.51 1122.56 C 2284.37 1109.79 2281.92 1095.06 2272.50 1085.48 C 2267.33 1080.01 2260.29 1076.64 2252.99 1075.13 C 2241.96 1072.79 2230.56 1073.35 2219.45 1074.66 Z" />
<path fill="#2d3180" opacity="1.00" d=" M 67.79 1269.04 C 130.82 1263.73 193.83 1258.24 256.86 1252.96 C 258.45 1272.52 260.23 1292.06 261.81 1311.61 C 198.79 1316.92 135.79 1322.41 72.76 1327.69 C 71.05 1308.14 69.31 1288.60 67.79 1269.04 Z" />
<path fill="#2d3180" opacity="1.00" d=" M 2140.04 1255.01 C 2202.66 1263.99 2265.27 1273.07 2327.87 1282.16 C 2324.30 1307.41 2320.57 1332.64 2316.95 1357.88 C 2314.38 1374.61 2312.76 1391.60 2307.80 1407.86 C 2305.47 1415.45 2302.30 1422.98 2297.01 1429.01 C 2288.37 1439.04 2275.21 1444.70 2262.05 1444.84 C 2248.18 1444.98 2233.61 1441.34 2223.11 1431.87 C 2215.18 1424.83 2209.43 1415.34 2207.00 1405.02 C 2205.93 1400.68 2205.49 1396.24 2204.86 1391.84 C 2201.44 1397.83 2198.21 1404.34 2192.32 1408.30 C 2184.97 1413.26 2177.29 1417.99 2168.79 1420.69 C 2150.31 1426.95 2131.96 1433.56 2113.43 1439.64 C 2116.14 1419.06 2119.39 1398.55 2122.20 1377.98 C 2122.58 1376.36 2122.26 1373.84 2124.42 1373.49 C 2144.90 1365.95 2165.39 1358.45 2185.89 1350.93 C 2192.18 1348.47 2199.18 1345.94 2203.04 1339.99 C 2206.27 1335.48 2207.05 1329.87 2207.82 1324.53 C 2183.89 1320.77 2159.88 1317.51 2135.90 1314.04 C 2134.54 1313.56 2131.29 1314.19 2131.83 1311.91 C 2134.50 1292.93 2137.30 1273.97 2140.04 1255.01 M 2242.85 1333.06 C 2241.10 1346.54 2237.75 1360.31 2241.01 1373.84 C 2244.46 1384.43 2258.70 1388.55 2267.84 1382.80 C 2270.69 1380.98 2272.70 1378.10 2274.01 1375.02 C 2276.74 1368.66 2277.54 1361.71 2278.54 1354.93 C 2279.43 1348.28 2280.55 1341.67 2281.33 1335.01 C 2269.22 1333.33 2257.15 1331.46 2245.05 1329.81 C 2242.89 1329.09 2243.10 1331.77 2242.85 1333.06 Z" />
<path fill="#2d3180" opacity="1.00" d=" M 78.24 1389.33 C 93.44 1385.60 108.61 1381.75 123.82 1378.04 C 128.63 1397.34 133.44 1416.65 138.20 1435.97 C 184.47 1424.68 230.61 1412.86 276.89 1401.64 C 281.49 1420.65 286.45 1439.59 290.96 1458.63 C 244.79 1470.05 198.64 1481.54 152.50 1493.04 C 157.13 1512.39 162.10 1531.65 166.83 1550.98 C 151.65 1554.86 136.46 1558.71 121.20 1562.29 C 106.92 1504.63 92.52 1446.99 78.24 1389.33 Z" />
<path fill="#2d3180" opacity="1.00" d=" M 2101.69 1461.97 C 2110.87 1464.02 2119.64 1467.61 2128.67 1470.26 C 2179.96 1486.80 2231.32 1503.15 2282.58 1519.81 C 2276.79 1538.01 2270.93 1556.18 2265.07 1574.35 C 2264.74 1576.42 2262.53 1575.07 2261.38 1574.81 C 2202.25 1555.75 2143.11 1536.75 2083.96 1517.78 C 2089.69 1499.12 2096.02 1480.65 2101.69 1461.97 Z" />
<path fill="#2d3180" opacity="1.00" d=" M 168.29 1673.20 C 214.54 1623.94 260.57 1574.47 306.96 1525.34 C 315.94 1543.02 324.50 1560.91 333.39 1578.63 C 334.80 1580.26 332.74 1581.60 331.70 1582.71 C 324.51 1589.21 317.54 1595.96 310.27 1602.39 C 320.04 1622.42 329.80 1642.47 339.90 1662.33 C 350.55 1660.39 361.21 1658.52 371.89 1656.74 C 380.64 1674.70 389.84 1692.45 398.24 1710.57 C 331.08 1717.27 263.91 1723.89 196.74 1730.60 C 187.10 1711.55 177.82 1692.31 168.29 1673.20 M 227.70 1680.30 C 250.88 1676.89 273.99 1672.88 297.11 1669.08 C 291.04 1656.67 284.94 1644.27 278.78 1631.91 C 261.73 1648.00 244.52 1663.95 227.70 1680.30 Z" />
<path fill="#2d3180" opacity="1.00" d=" M 2049.25 1601.92 C 2091.61 1623.51 2134.04 1644.99 2176.31 1666.76 C 2185.90 1649.26 2194.33 1631.13 2203.83 1613.57 C 2217.71 1620.71 2231.68 1627.66 2245.51 1634.91 C 2218.66 1687.91 2191.49 1740.74 2164.66 1793.75 C 2150.67 1786.83 2136.88 1779.49 2122.87 1772.60 C 2131.41 1754.58 2140.94 1737.03 2149.82 1719.17 C 2107.46 1697.41 2064.88 1676.08 2022.61 1654.14 C 2031.53 1636.75 2040.35 1619.32 2049.25 1601.92 Z" />
<path fill="#2d3180" opacity="1.00" d=" M 265.71 1849.93 C 314.44 1809.58 363.30 1769.40 412.12 1729.17 C 423.94 1743.37 435.74 1757.60 447.37 1771.96 C 440.47 1795.58 433.62 1819.21 426.75 1842.85 C 422.09 1859.31 416.95 1875.65 412.62 1892.20 C 439.56 1870.69 465.71 1848.17 492.67 1826.68 C 504.23 1840.91 515.99 1854.98 527.61 1869.16 C 478.92 1909.60 430.00 1949.76 381.15 1990.00 C 369.49 1976.01 358.04 1961.84 346.32 1947.90 C 357.72 1907.40 370.09 1867.17 381.35 1826.64 C 354.27 1848.27 327.83 1870.74 300.93 1892.61 C 289.08 1878.48 277.38 1864.22 265.71 1849.93 Z" />
<path fill="#2d3180" opacity="1.00" d=" M 1906.81 1819.98 C 1919.13 1804.73 1931.56 1789.55 1944.07 1774.44 C 1963.13 1789.85 1982.04 1805.44 2001.00 1820.97 C 2002.92 1822.36 2004.56 1824.56 2007.09 1824.85 C 2050.60 1829.20 2094.20 1832.94 2137.68 1837.56 C 2124.07 1854.39 2110.24 1871.05 2096.60 1887.85 C 2072.00 1884.39 2047.46 1880.51 2022.86 1877.08 C 2031.02 1900.44 2039.82 1923.60 2047.85 1947.00 C 2037.70 1960.32 2026.65 1973.02 2016.16 1986.11 C 2013.06 1989.79 2010.22 1993.69 2006.86 1997.14 C 1994.22 1955.51 1981.54 1913.89 1968.89 1872.27 C 1968.16 1869.55 1965.51 1868.15 1963.57 1866.42 C 1944.62 1850.98 1925.70 1835.50 1906.81 1819.98 Z" />
<path fill="#2d3180" opacity="1.00" d=" M 661.31 2047.29 C 678.18 2045.07 695.65 2054.87 702.67 2070.34 C 710.57 2086.51 705.83 2107.56 691.71 2118.74 C 677.80 2130.64 655.73 2131.03 641.41 2119.63 C 628.02 2109.71 622.16 2091.08 627.40 2075.26 C 631.97 2060.37 645.82 2048.93 661.31 2047.29 Z" />
<path fill="#2d3180" opacity="1.00" d=" M 1745.32 2047.29 C 1757.06 2045.86 1769.32 2049.95 1777.85 2058.16 C 1786.23 2065.98 1790.95 2077.52 1790.45 2088.99 C 1790.11 2100.42 1784.58 2111.53 1775.71 2118.74 C 1766.27 2126.64 1753.10 2129.75 1741.11 2127.00 C 1730.06 2124.54 1720.21 2117.21 1714.70 2107.31 C 1707.80 2095.30 1707.80 2079.69 1714.71 2067.68 C 1720.89 2056.53 1732.63 2048.69 1745.32 2047.29 Z" />
<path fill="#2d3180" opacity="1.00" d=" M 1446.04 2110.14 C 1461.19 2105.11 1476.92 2100.89 1492.99 2100.86 C 1507.90 2100.81 1522.84 2106.98 1532.82 2118.16 C 1544.88 2131.39 1548.98 2150.71 1545.15 2168.00 C 1541.77 2184.01 1532.43 2197.89 1522.88 2210.87 C 1512.67 2224.33 1500.93 2236.85 1493.34 2252.11 C 1519.61 2244.83 1545.72 2236.96 1571.90 2229.35 C 1575.97 2243.14 1580.04 2256.94 1583.94 2270.79 C 1533.29 2285.44 1482.70 2300.34 1432.04 2314.96 C 1428.76 2295.15 1431.72 2274.43 1440.18 2256.25 C 1450.18 2234.70 1464.84 2215.86 1478.87 2196.86 C 1485.49 2187.05 1493.18 2177.11 1494.81 2165.04 C 1495.98 2157.59 1493.25 2149.40 1487.03 2144.91 C 1475.96 2136.18 1457.36 2141.10 1451.90 2154.05 C 1449.05 2161.04 1449.91 2168.81 1450.69 2176.14 C 1433.40 2179.74 1416.11 2183.30 1398.80 2186.80 C 1396.43 2170.59 1396.20 2152.67 1405.44 2138.42 C 1414.43 2123.83 1430.29 2115.50 1446.04 2110.14 Z" />
<path fill="#2d3180" opacity="1.00" d=" M 884.01 2125.99 C 896.30 2121.17 907.39 2113.39 916.18 2103.56 C 930.19 2107.58 944.10 2111.96 958.06 2116.18 C 939.46 2177.77 920.82 2239.36 902.08 2300.91 C 885.07 2295.81 868.10 2290.55 851.07 2285.52 C 862.93 2245.21 875.57 2205.12 887.40 2164.80 C 881.34 2166.59 875.40 2168.81 869.24 2170.28 C 855.40 2173.84 841.03 2174.81 826.78 2174.71 C 830.70 2160.84 835.10 2147.13 839.19 2133.32 C 854.35 2132.99 869.76 2131.45 884.01 2125.99 Z" />
<path fill="#2d3180" opacity="1.00" d=" M 1201.70 2151.02 C 1252.78 2146.32 1303.87 2141.60 1354.97 2137.00 C 1355.90 2148.34 1357.21 2159.65 1357.96 2171.00 C 1358.30 2173.18 1356.20 2174.48 1355.05 2176.05 C 1337.24 2195.80 1324.08 2219.50 1315.73 2244.71 C 1307.84 2268.09 1303.74 2292.68 1303.30 2317.34 C 1303.15 2322.35 1303.31 2327.39 1302.98 2332.41 C 1285.57 2333.73 1268.21 2335.64 1250.80 2337.04 C 1252.02 2309.58 1255.16 2281.94 1263.76 2255.72 C 1271.96 2231.21 1284.67 2208.47 1298.87 2186.97 C 1267.96 2189.54 1237.09 2192.79 1206.18 2195.28 C 1204.86 2192.82 1205.41 2189.72 1204.93 2187.04 C 1203.88 2175.03 1202.69 2163.03 1201.70 2151.02 Z" />
<path fill="#2d3180" opacity="1.00" d=" M 1047.86 2143.89 C 1063.93 2137.13 1081.98 2137.70 1098.89 2140.38 C 1114.36 2142.88 1130.14 2148.24 1141.46 2159.54 C 1153.02 2171.08 1159.83 2186.76 1162.47 2202.74 C 1164.38 2214.06 1164.38 2225.62 1163.68 2237.06 C 1163.39 2238.36 1164.08 2240.12 1162.99 2241.20 C 1137.44 2241.79 1111.82 2241.14 1086.26 2241.52 C 1109.51 2241.65 1132.76 2241.55 1156.01 2241.57 C 1158.27 2241.63 1160.63 2241.25 1162.83 2242.04 C 1163.78 2243.46 1162.65 2245.39 1162.74 2247.06 C 1160.63 2264.72 1156.82 2282.54 1148.30 2298.31 C 1141.66 2310.83 1131.15 2321.27 1118.41 2327.53 C 1103.23 2335.16 1085.64 2336.43 1068.99 2334.34 C 1054.08 2332.59 1038.55 2329.12 1026.77 2319.23 C 1015.31 2309.99 1008.57 2296.00 1006.02 2281.71 C 1023.64 2281.50 1041.26 2280.76 1058.88 2280.63 C 1059.52 2286.46 1060.54 2292.81 1064.78 2297.22 C 1070.08 2302.89 1079.07 2303.86 1086.03 2300.95 C 1092.48 2298.08 1097.19 2292.18 1099.78 2285.73 C 1103.84 2275.38 1106.29 2264.46 1108.19 2253.54 C 1101.19 2258.36 1094.09 2263.40 1085.76 2265.63 C 1072.79 2269.07 1058.69 2267.69 1046.33 2262.64 C 1028.12 2254.87 1014.66 2237.31 1011.24 2217.89 C 1008.93 2204.37 1010.33 2190.16 1015.48 2177.44 C 1021.50 2162.71 1033.04 2150.02 1047.86 2143.89 M 1080.36 2172.55 C 1073.17 2174.17 1067.21 2179.60 1064.31 2186.29 C 1061.19 2193.41 1060.20 2201.31 1060.37 2209.05 C 1060.52 2216.53 1062.92 2224.28 1068.39 2229.61 C 1073.86 2235.26 1082.35 2237.30 1089.95 2235.79 C 1097.42 2234.29 1103.87 2228.98 1107.19 2222.19 C 1110.56 2215.35 1111.59 2207.57 1111.38 2200.03 C 1111.19 2192.35 1108.39 2184.59 1102.84 2179.16 C 1097.13 2173.28 1088.32 2170.80 1080.36 2172.55 Z" />
</g>
<g id="#ee2024ff">
<path fill="#ee2024" opacity="1.00" d=" M 1348.60 384.59 C 1354.72 378.83 1362.87 375.56 1368.08 368.76 C 1370.98 368.78 1373.96 368.37 1376.83 369.07 C 1379.87 370.28 1382.70 372.22 1386.05 372.55 C 1392.84 372.86 1398.99 376.13 1405.78 376.56 C 1420.56 381.02 1435.54 384.78 1450.27 389.50 C 1460.68 392.74 1470.82 396.78 1481.24 399.99 C 1490.57 403.33 1499.90 406.75 1508.93 410.88 C 1524.56 416.29 1539.42 423.72 1554.43 430.59 C 1570.00 437.28 1584.64 445.96 1599.92 453.30 C 1605.52 456.65 1611.46 459.29 1617.05 462.65 C 1623.25 466.12 1629.18 470.11 1635.53 473.31 C 1645.31 480.03 1655.56 486.09 1665.55 492.50 C 1668.41 495.12 1672.29 496.15 1675.12 498.81 C 1677.11 500.53 1679.15 502.22 1681.51 503.45 C 1685.90 505.91 1689.36 509.70 1693.80 512.10 C 1697.43 514.06 1700.17 517.29 1703.81 519.27 C 1709.73 522.43 1713.72 528.10 1719.51 531.46 C 1724.29 534.19 1727.86 538.47 1732.27 541.69 C 1741.06 547.37 1747.90 555.44 1756.05 561.92 C 1769.20 572.34 1780.81 584.51 1793.00 596.02 C 1802.66 605.35 1811.74 615.27 1821.06 624.95 C 1825.60 629.42 1829.76 634.27 1833.67 639.32 C 1840.51 648.11 1849.14 655.41 1855.25 664.77 C 1858.46 668.87 1862.30 672.47 1865.14 676.88 C 1867.46 680.48 1870.17 683.79 1873.10 686.92 C 1876.40 690.41 1878.28 694.94 1881.59 698.43 C 1884.34 701.43 1886.40 704.96 1888.67 708.33 C 1890.92 711.14 1893.15 714.00 1894.90 717.18 C 1910.42 739.05 1924.08 762.16 1937.55 785.32 C 1945.41 800.78 1954.14 815.82 1961.38 831.61 C 1980.55 871.04 1997.04 911.89 2009.78 953.93 C 2010.91 957.73 2011.89 961.60 2013.37 965.32 C 2014.54 971.84 2017.28 977.90 2018.42 984.45 C 2020.67 990.06 2020.88 996.19 2023.00 1001.84 C 2024.40 1006.37 2024.34 1011.24 2026.10 1015.69 C 2027.96 1020.49 2027.34 1025.81 2029.18 1030.62 C 2030.63 1034.27 2030.82 1038.20 2031.18 1042.07 C 2031.45 1045.87 2033.23 1049.33 2033.88 1053.06 C 2034.45 1056.20 2034.28 1059.42 2034.63 1062.60 C 2035.06 1066.59 2037.09 1070.22 2037.36 1074.24 C 2037.73 1079.57 2037.28 1085.03 2038.93 1090.20 C 2041.13 1097.26 2040.82 1104.75 2041.22 1112.07 C 2041.28 1118.50 2043.50 1124.64 2043.91 1131.04 C 2044.82 1139.41 2043.22 1148.08 2046.21 1156.17 C 2046.55 1160.52 2047.59 1164.75 2048.66 1168.96 C 2048.95 1189.66 2048.75 1210.37 2048.76 1231.07 C 2049.03 1235.22 2046.93 1238.97 2046.67 1243.06 C 2046.39 1247.45 2044.32 1251.52 2044.35 1255.95 C 2044.24 1264.09 2044.45 1272.35 2042.52 1280.32 C 2040.01 1290.92 2042.19 1302.15 2038.76 1312.59 C 2036.64 1319.60 2038.63 1327.21 2035.98 1334.11 C 2033.46 1340.48 2035.23 1347.61 2032.69 1353.98 C 2030.38 1359.61 2031.45 1365.93 2029.27 1371.60 C 2027.31 1376.55 2027.92 1382.05 2025.99 1387.02 C 2024.08 1392.01 2024.37 1397.54 2022.33 1402.50 C 2021.50 1404.58 2021.08 1406.79 2020.82 1409.02 C 2020.38 1413.74 2017.73 1417.87 2017.31 1422.61 C 2000.94 1482.87 1977.55 1541.28 1948.33 1596.35 C 1944.36 1605.68 1938.56 1614.06 1933.98 1623.08 C 1922.49 1643.54 1909.44 1663.06 1896.78 1682.81 C 1893.02 1687.18 1890.54 1692.43 1886.85 1696.83 C 1883.11 1700.89 1880.92 1706.11 1877.03 1710.05 C 1872.76 1714.26 1870.37 1719.91 1866.13 1724.14 C 1861.12 1729.25 1857.85 1735.74 1852.86 1740.87 C 1847.97 1745.72 1844.39 1751.67 1839.77 1756.75 C 1824.23 1773.54 1809.36 1790.99 1792.72 1806.73 C 1783.81 1815.13 1774.89 1823.53 1765.92 1831.88 C 1758.38 1838.35 1751.55 1845.64 1743.46 1851.47 C 1737.52 1855.77 1732.80 1861.59 1726.49 1865.40 C 1721.17 1868.65 1717.18 1873.60 1711.86 1876.84 C 1706.91 1879.76 1703.26 1884.40 1698.16 1887.11 C 1694.24 1889.04 1691.52 1892.67 1687.61 1894.63 C 1685.04 1895.92 1682.88 1897.85 1680.66 1899.66 C 1666.62 1909.40 1652.01 1918.25 1637.68 1927.52 C 1627.37 1933.17 1617.34 1939.34 1607.10 1945.10 C 1587.27 1956.02 1567.10 1966.34 1546.47 1975.64 C 1536.35 1980.33 1526.19 1984.97 1515.74 1988.87 C 1503.56 1993.76 1491.51 1999.01 1479.04 2003.09 C 1464.38 2008.17 1449.76 2013.42 1434.77 2017.43 C 1429.55 2018.35 1424.81 2020.92 1419.53 2021.66 C 1413.80 2023.97 1407.62 2024.56 1401.81 2026.59 C 1397.23 2028.00 1392.30 2027.90 1387.84 2029.75 C 1383.36 2031.57 1378.27 2030.72 1373.89 2032.87 C 1368.75 2035.42 1362.76 2033.86 1357.53 2036.08 C 1351.46 2038.77 1344.55 2036.90 1338.45 2039.43 C 1331.71 2042.13 1324.21 2040.56 1317.38 2042.88 C 1310.47 2045.09 1303.13 2044.10 1296.05 2045.01 C 1292.20 2045.43 1288.64 2047.12 1284.79 2047.48 C 1280.18 2047.91 1275.54 2047.69 1270.93 2047.94 C 1267.28 2047.96 1264.02 2049.74 1260.58 2050.71 C 1255.62 2052.68 1250.20 2051.97 1245.00 2052.12 C 1239.47 2051.95 1233.86 2052.64 1228.41 2051.46 C 1228.33 2048.90 1227.93 2045.91 1229.99 2043.98 C 1233.43 2040.24 1235.36 2035.47 1238.50 2031.51 C 1244.69 2021.05 1251.76 2011.04 1257.10 2000.12 C 1261.15 1994.37 1263.75 1987.72 1267.91 1982.05 C 1268.67 1980.93 1268.85 1979.56 1269.40 1978.38 C 1275.68 1967.06 1281.14 1955.35 1286.72 1943.67 C 1290.10 1937.84 1291.73 1931.18 1295.02 1925.30 C 1295.72 1923.28 1296.00 1921.09 1297.40 1919.41 C 1299.57 1916.92 1298.50 1913.16 1300.65 1910.65 C 1302.64 1908.14 1301.87 1904.51 1304.17 1902.17 C 1305.72 1900.48 1305.50 1898.11 1305.77 1896.03 C 1305.81 1893.29 1308.85 1891.72 1308.76 1888.96 C 1308.84 1886.44 1309.40 1884.02 1310.96 1882.02 C 1312.37 1880.08 1311.88 1876.50 1314.77 1875.99 C 1317.62 1875.21 1320.50 1874.49 1323.29 1873.50 C 1326.91 1872.17 1330.82 1872.83 1334.58 1872.37 C 1336.98 1871.83 1338.88 1869.93 1341.36 1869.59 C 1343.54 1869.30 1345.75 1869.42 1347.95 1869.17 C 1350.45 1868.55 1352.55 1866.77 1355.15 1866.41 C 1358.37 1865.89 1361.78 1866.19 1364.81 1864.76 C 1367.65 1863.46 1370.73 1862.92 1373.81 1862.47 C 1377.68 1861.87 1381.08 1859.56 1385.03 1859.23 C 1387.46 1859.01 1389.81 1858.33 1391.95 1857.11 C 1394.90 1855.37 1398.70 1856.51 1401.56 1854.52 C 1403.16 1853.46 1404.98 1852.81 1406.91 1852.59 C 1409.95 1852.31 1412.20 1849.83 1415.22 1849.45 C 1417.41 1849.09 1419.58 1848.57 1421.55 1847.49 C 1424.84 1845.61 1428.99 1846.33 1432.17 1844.19 C 1434.52 1842.46 1437.78 1842.95 1440.01 1841.01 C 1442.25 1839.09 1445.47 1839.46 1447.88 1837.86 C 1449.44 1836.85 1451.16 1836.15 1453.00 1835.81 C 1465.37 1831.03 1477.59 1825.87 1489.35 1819.68 C 1501.82 1815.09 1513.10 1807.85 1524.98 1801.95 C 1534.72 1796.35 1544.32 1790.57 1554.09 1785.03 C 1564.23 1778.10 1574.78 1771.85 1584.84 1764.81 C 1593.63 1757.84 1603.40 1752.17 1612.00 1744.96 C 1616.32 1740.88 1621.46 1737.82 1625.99 1733.99 C 1630.93 1729.94 1635.73 1725.70 1640.83 1721.84 C 1646.09 1717.81 1650.65 1712.98 1655.51 1708.51 C 1668.38 1696.38 1682.20 1685.20 1693.69 1671.69 C 1699.58 1664.93 1705.52 1658.20 1711.81 1651.81 C 1716.85 1646.77 1720.49 1640.58 1725.33 1635.37 C 1730.43 1629.70 1734.48 1623.21 1739.48 1617.47 C 1744.37 1611.91 1748.22 1605.56 1752.91 1599.85 C 1756.13 1594.48 1760.37 1589.83 1763.45 1584.38 C 1769.17 1576.64 1773.60 1568.03 1779.33 1560.30 C 1785.77 1549.71 1792.10 1539.04 1798.05 1528.18 C 1803.00 1517.57 1809.03 1507.57 1813.92 1496.94 C 1819.45 1484.42 1825.82 1472.26 1830.29 1459.31 C 1832.16 1456.23 1832.31 1452.46 1834.37 1449.49 C 1835.78 1447.26 1835.77 1444.44 1837.28 1442.26 C 1839.15 1439.62 1838.89 1436.19 1840.44 1433.42 C 1842.38 1430.17 1842.30 1426.22 1844.06 1422.89 C 1845.82 1419.57 1845.54 1415.58 1847.43 1412.33 C 1848.55 1410.42 1848.86 1408.22 1849.25 1406.09 C 1849.51 1403.76 1851.36 1402.08 1852.00 1399.90 C 1852.33 1398.09 1852.34 1396.26 1852.76 1394.49 C 1853.57 1392.23 1855.23 1390.26 1855.38 1387.79 C 1855.60 1384.87 1856.11 1381.97 1857.41 1379.33 C 1859.57 1374.77 1858.79 1369.46 1860.99 1364.91 C 1863.29 1360.36 1861.67 1354.84 1864.46 1350.47 C 1866.22 1347.58 1865.53 1344.09 1865.98 1340.91 C 1866.06 1337.67 1868.64 1335.19 1868.83 1331.99 C 1869.29 1328.39 1868.76 1324.64 1870.04 1321.19 C 1873.02 1314.39 1871.65 1306.74 1873.59 1299.69 C 1876.35 1288.88 1875.21 1277.60 1877.51 1266.73 C 1879.33 1257.27 1879.03 1247.63 1879.33 1238.06 C 1880.49 1218.72 1881.39 1199.32 1880.17 1179.95 C 1878.63 1164.88 1880.12 1149.60 1877.36 1134.65 C 1875.20 1124.22 1876.27 1113.42 1873.64 1103.06 C 1871.58 1096.13 1873.10 1088.55 1870.17 1081.85 C 1868.55 1077.86 1869.53 1073.44 1868.57 1069.34 C 1867.81 1066.87 1866.18 1064.68 1866.05 1062.05 C 1865.59 1058.82 1866.13 1055.36 1864.51 1052.40 C 1863.10 1049.82 1862.54 1046.94 1862.45 1044.04 C 1862.27 1039.35 1859.48 1035.29 1859.23 1030.61 C 1858.88 1025.18 1855.44 1020.53 1855.44 1015.04 C 1855.45 1012.00 1852.58 1009.94 1852.50 1006.95 C 1852.25 1004.63 1852.20 1002.18 1850.68 1000.30 C 1848.39 997.45 1849.54 993.40 1847.50 990.46 C 1845.46 987.48 1846.06 983.62 1844.42 980.49 C 1842.21 976.37 1842.14 971.52 1839.71 967.49 C 1839.23 963.33 1836.43 960.12 1835.59 956.11 C 1830.12 943.37 1825.65 930.12 1819.30 917.78 C 1816.64 912.01 1814.09 906.21 1811.59 900.38 C 1802.72 883.70 1794.26 866.79 1784.30 850.73 C 1779.53 842.30 1774.09 834.27 1768.89 826.11 C 1765.31 821.85 1763.53 816.19 1758.99 812.77 C 1752.01 816.07 1745.24 819.79 1738.45 823.46 C 1721.55 831.76 1705.62 841.86 1689.78 851.99 C 1672.77 863.03 1656.17 874.72 1640.15 887.14 C 1634.25 892.67 1627.06 896.57 1621.35 902.31 C 1615.23 908.26 1608.00 912.90 1601.90 918.86 C 1592.52 927.83 1583.13 936.79 1573.78 945.78 C 1564.55 955.87 1554.73 965.42 1545.64 975.63 C 1540.43 982.71 1534.48 989.15 1528.70 995.74 C 1524.30 1002.85 1518.17 1008.60 1513.51 1015.52 C 1489.21 1046.93 1468.36 1080.91 1450.01 1116.08 C 1445.72 1123.65 1442.77 1131.87 1438.62 1139.50 C 1430.61 1157.77 1422.50 1176.00 1415.86 1194.77 C 1414.34 1197.93 1414.30 1201.58 1412.61 1204.68 C 1411.18 1207.04 1411.27 1209.90 1410.33 1212.44 C 1407.58 1216.63 1407.57 1221.87 1404.94 1226.15 C 1404.71 1231.76 1401.70 1236.64 1400.93 1242.15 C 1400.30 1246.19 1398.08 1249.79 1397.66 1253.88 C 1397.35 1256.24 1396.78 1258.57 1395.75 1260.73 C 1393.68 1264.78 1394.87 1269.68 1392.53 1273.65 C 1390.15 1277.68 1391.86 1282.70 1389.80 1286.85 C 1387.24 1291.77 1388.46 1297.56 1386.74 1302.74 C 1384.01 1310.83 1384.80 1319.56 1382.49 1327.75 C 1380.41 1335.83 1381.52 1344.34 1379.37 1352.41 C 1376.58 1363.27 1378.20 1374.61 1376.60 1385.63 C 1374.62 1398.66 1375.33 1411.87 1375.19 1425.00 C 1375.37 1440.46 1374.50 1456.00 1376.66 1471.36 C 1378.21 1482.05 1376.51 1493.07 1379.50 1503.57 C 1381.22 1509.57 1380.78 1515.87 1381.49 1522.02 C 1382.01 1526.73 1383.52 1531.29 1383.98 1536.03 C 1384.60 1541.80 1384.88 1547.70 1386.76 1553.26 C 1388.41 1558.39 1387.32 1564.10 1389.79 1569.03 C 1391.87 1573.23 1390.06 1578.34 1392.54 1582.42 C 1393.89 1584.73 1394.21 1587.39 1394.40 1590.04 C 1394.49 1593.96 1397.19 1597.19 1397.49 1601.09 C 1397.77 1603.62 1398.24 1606.16 1399.23 1608.55 C 1400.98 1612.87 1401.04 1617.70 1403.09 1621.94 C 1404.90 1625.33 1404.10 1629.49 1406.27 1632.76 C 1408.11 1635.76 1407.51 1639.58 1409.42 1642.57 C 1411.03 1645.05 1410.91 1648.17 1412.26 1650.78 C 1414.41 1654.64 1414.41 1659.27 1416.70 1663.11 C 1420.04 1674.05 1425.30 1684.23 1429.13 1694.97 C 1432.43 1702.60 1435.51 1710.32 1439.32 1717.72 C 1441.01 1720.56 1442.13 1723.80 1442.41 1727.11 C 1442.07 1730.23 1441.52 1733.44 1440.42 1736.39 C 1438.36 1738.87 1437.60 1742.09 1435.65 1744.64 C 1432.05 1749.10 1429.42 1754.30 1425.44 1758.46 C 1421.20 1762.56 1417.08 1766.84 1412.42 1770.47 C 1408.65 1772.56 1405.38 1775.45 1401.65 1777.57 C 1398.53 1778.33 1396.36 1781.09 1393.13 1781.45 C 1390.08 1781.79 1388.11 1784.88 1384.91 1784.63 C 1381.78 1784.35 1379.39 1786.32 1376.81 1787.67 C 1372.51 1788.65 1367.96 1787.26 1363.76 1788.76 C 1359.65 1790.10 1355.39 1791.32 1351.02 1790.95 C 1346.06 1790.54 1341.06 1791.54 1336.15 1790.74 C 1333.84 1790.46 1332.38 1788.14 1332.30 1785.98 C 1332.11 1778.94 1332.22 1771.71 1335.00 1765.13 C 1336.75 1755.29 1334.35 1744.99 1337.24 1735.28 C 1339.83 1727.43 1338.61 1719.10 1338.89 1711.01 C 1339.41 1685.01 1339.38 1659.00 1338.93 1633.00 C 1338.64 1623.86 1339.71 1614.54 1337.24 1605.61 C 1334.78 1597.01 1336.06 1588.00 1335.52 1579.21 C 1335.27 1575.49 1333.12 1572.26 1332.71 1568.60 C 1332.18 1563.73 1332.47 1558.83 1332.26 1553.96 C 1332.17 1550.39 1329.68 1547.47 1329.32 1543.97 C 1328.56 1538.63 1330.22 1532.76 1327.20 1527.92 C 1324.18 1522.38 1327.39 1515.49 1324.01 1510.09 C 1320.87 1505.28 1323.80 1499.05 1320.69 1494.29 C 1318.26 1490.69 1319.73 1486.18 1318.68 1482.21 C 1317.92 1480.35 1316.64 1478.75 1316.00 1476.86 C 1315.34 1474.11 1315.84 1471.24 1315.29 1468.49 C 1314.42 1466.23 1312.61 1464.32 1312.48 1461.83 C 1312.10 1458.92 1312.78 1455.65 1310.72 1453.25 C 1308.42 1450.40 1309.26 1446.56 1308.60 1443.23 C 1307.90 1441.66 1306.77 1440.35 1306.06 1438.82 C 1305.37 1435.82 1306.33 1432.36 1304.06 1429.91 C 1301.46 1426.85 1303.21 1422.32 1300.72 1419.21 C 1298.21 1415.87 1299.84 1411.18 1297.13 1407.94 C 1295.07 1405.21 1296.21 1401.44 1294.29 1398.69 C 1293.39 1397.20 1292.41 1395.69 1292.35 1393.91 C 1292.06 1389.40 1288.51 1386.04 1288.38 1381.45 C 1285.55 1377.96 1286.09 1373.18 1283.41 1369.69 C 1281.79 1367.18 1282.52 1363.78 1280.53 1361.44 C 1278.67 1359.14 1279.23 1355.89 1277.45 1353.57 C 1275.59 1350.99 1275.77 1347.58 1273.99 1344.99 C 1272.20 1342.22 1271.96 1338.77 1269.94 1336.14 C 1265.61 1323.94 1259.55 1312.47 1254.33 1300.63 C 1245.08 1281.92 1235.96 1263.14 1226.49 1244.53 C 1222.51 1236.31 1218.26 1228.21 1214.93 1219.70 C 1210.30 1211.86 1207.61 1203.15 1202.96 1195.35 C 1201.20 1189.31 1198.15 1183.76 1195.80 1177.97 C 1195.34 1174.99 1192.64 1173.03 1192.28 1170.03 C 1191.77 1167.08 1189.56 1164.84 1188.95 1161.94 C 1188.54 1159.94 1187.42 1158.24 1186.45 1156.51 C 1185.61 1154.31 1185.60 1151.80 1184.04 1149.93 C 1181.92 1147.23 1182.46 1143.42 1180.27 1140.77 C 1178.77 1138.78 1179.25 1136.02 1177.83 1134.02 C 1176.52 1132.20 1175.70 1130.11 1175.38 1127.90 C 1175.13 1125.25 1172.64 1123.52 1172.40 1120.90 C 1172.11 1116.36 1168.50 1113.01 1168.52 1108.38 C 1165.28 1104.81 1166.27 1099.56 1163.15 1096.00 C 1161.79 1093.55 1162.82 1090.31 1160.94 1088.07 C 1158.78 1085.69 1159.11 1082.39 1158.38 1079.49 C 1156.91 1077.19 1155.46 1074.84 1155.62 1071.99 C 1155.79 1069.41 1153.83 1067.61 1152.76 1065.49 C 1152.06 1062.49 1152.52 1059.12 1150.40 1056.63 C 1148.05 1053.62 1149.89 1049.33 1147.65 1046.27 C 1145.89 1043.87 1145.57 1040.93 1145.48 1038.06 C 1145.48 1034.98 1142.10 1033.09 1142.34 1029.97 C 1142.26 1027.31 1142.31 1024.53 1140.64 1022.32 C 1137.80 1018.59 1140.43 1013.28 1137.33 1009.70 C 1135.10 1006.96 1135.77 1003.29 1135.51 1000.05 C 1135.44 997.32 1133.02 995.42 1132.58 992.80 C 1132.24 990.22 1132.50 987.61 1132.17 985.04 C 1131.31 982.29 1129.15 979.99 1129.16 976.99 C 1128.63 973.21 1129.58 969.04 1127.29 965.71 C 1124.11 960.56 1127.22 954.08 1124.32 948.85 C 1121.67 943.95 1122.45 938.26 1122.16 932.93 C 1121.99 929.43 1119.62 926.53 1119.33 923.07 C 1118.82 918.37 1118.92 913.65 1118.85 908.95 C 1118.92 904.47 1116.53 900.47 1116.08 896.08 C 1114.80 883.80 1116.76 871.33 1114.32 859.15 C 1113.03 853.51 1113.67 847.70 1113.39 841.99 C 1113.06 833.28 1114.33 824.66 1114.81 816.00 C 1116.87 804.35 1114.11 792.27 1117.02 780.74 C 1120.94 772.23 1116.90 762.37 1120.82 753.86 C 1123.82 747.68 1120.62 740.22 1124.23 734.21 C 1126.76 730.28 1125.03 725.43 1126.07 721.14 C 1126.67 719.24 1127.88 717.63 1128.60 715.79 C 1129.06 712.97 1128.84 710.09 1129.38 707.29 C 1129.89 705.00 1131.68 703.24 1132.17 700.95 C 1132.42 698.77 1132.27 696.56 1132.58 694.39 C 1133.10 692.02 1135.23 690.28 1135.41 687.80 C 1135.67 684.91 1135.39 681.77 1137.45 679.44 C 1139.83 676.58 1138.15 672.35 1140.46 669.46 C 1141.87 667.62 1142.09 665.30 1142.38 663.09 C 1142.41 660.83 1144.52 659.49 1145.26 657.51 C 1145.78 655.04 1145.52 652.27 1147.28 650.25 C 1149.53 647.72 1148.37 643.93 1150.27 641.25 C 1152.33 638.37 1152.29 634.56 1154.65 631.83 C 1162.44 611.17 1172.34 591.28 1183.08 571.93 C 1191.31 557.41 1199.93 543.14 1209.53 529.50 C 1211.92 524.44 1216.41 520.87 1218.97 515.93 C 1220.91 512.34 1224.08 509.66 1226.22 506.21 C 1228.43 502.81 1230.59 499.33 1233.53 496.50 C 1238.34 491.88 1241.42 485.83 1245.99 480.99 C 1252.02 474.68 1257.94 468.27 1263.70 461.71 C 1269.53 454.27 1276.45 447.80 1283.00 441.01 C 1288.63 434.91 1295.64 430.35 1301.67 424.67 C 1308.60 418.61 1314.70 411.64 1321.86 405.82 C 1326.02 402.31 1330.73 399.48 1334.55 395.56 C 1338.72 391.27 1344.14 388.54 1348.60 384.59 Z" />
</g>
</svg>
